<svg width="40" height="41" viewBox="0 0 40 41" fill="none" xmlns="http://www.w3.org/2000/svg">
<g clip-path="url(#clip0_1_2285)">
<path d="M35.3063 24.0042C36.622 20.1266 36.5872 15.9179 35.2074 12.0627C33.8277 8.20739 31.1841 4.93234 27.7067 2.7702C24.2294 0.608062 20.1228 -0.313969 16.0548 0.154076C11.9869 0.622121 8.19703 2.45271 5.30157 5.34809C2.4061 8.24348 0.575416 12.0333 0.107259 16.1012C-0.360898 20.1691 0.561019 24.2757 2.72306 27.7532C4.88511 31.2306 8.16008 33.8743 12.0153 35.2542C15.8706 36.634 20.0793 36.669 23.9569 35.3533C24.5551 36.5552 25.4305 37.5975 26.511 38.3943C27.5915 39.1911 28.846 39.7194 30.171 39.9357C31.496 40.1519 32.8534 40.0499 34.1312 39.6381C35.4089 39.2263 36.5704 38.5164 37.5197 37.5671C38.469 36.6179 39.1789 35.4564 39.5908 34.1786C40.0027 32.9009 40.1047 31.5435 39.8885 30.2185C39.6722 28.8935 39.1439 27.639 38.3472 26.5585C37.5504 25.4779 36.5081 24.6024 35.3063 24.0042ZM34.2959 23.5792C32.2161 22.8581 29.9368 22.9783 27.9444 23.9142L28.7459 22.5152C28.7933 22.4324 28.8182 22.3387 28.8181 22.2433V19.6574L30.5175 17.9092C30.6168 17.8072 30.6724 17.6704 30.6722 17.528V15.3033C30.6722 15.1839 30.6331 15.0677 30.5609 14.9727C30.4886 14.8776 30.3872 14.8088 30.2722 14.7767L27.2722 13.9405L26.1628 11.7699C26.1235 11.6931 26.0666 11.6267 25.9968 11.576C25.927 11.5254 25.8461 11.492 25.7609 11.4786L21.5078 10.8095V10.392L27.2491 9.12142L29.3944 11.2652C29.497 11.3677 29.6362 11.4254 29.7813 11.4255H33.775C35.44 15.2738 35.6255 19.6013 34.2959 23.578V23.5792ZM33.2519 10.333H30.0075L27.8116 8.1361C27.7466 8.07117 27.6663 8.02362 27.5781 7.99785C27.4899 7.97207 27.3966 7.96889 27.3069 7.9886L20.8428 9.41892C20.7213 9.44586 20.6126 9.51342 20.5347 9.61045C20.4567 9.70749 20.4142 9.8282 20.4141 9.95267V11.277C20.4141 11.4073 20.4607 11.5333 20.5454 11.6323C20.63 11.7313 20.7473 11.7968 20.8759 11.817L25.3156 12.5152L26.4072 14.6514C26.4416 14.7187 26.4895 14.7782 26.5481 14.826C26.6066 14.8738 26.6744 14.909 26.7472 14.9292L29.5784 15.7183V17.3058L27.8791 19.0539C27.7799 19.156 27.7244 19.2928 27.7244 19.4352V22.0974L25.9188 25.2502C25.188 25.8983 24.5741 26.6672 24.1038 27.5233H22.885V25.7924C22.885 25.7166 22.8692 25.6416 22.8387 25.5722C22.8082 25.5028 22.7636 25.4405 22.7078 25.3892L20.3428 23.2208V20.7064C20.3428 20.5942 20.3083 20.4847 20.2439 20.3927C20.1795 20.3008 20.0883 20.231 19.9828 20.1927L15.0978 18.4164V14.3539L18.2897 10.9074C18.3414 10.8515 18.3809 10.7855 18.4057 10.7136C18.4304 10.6416 18.4399 10.5653 18.4334 10.4894C18.427 10.4136 18.4048 10.3399 18.3682 10.2732C18.3317 10.2064 18.2816 10.148 18.2213 10.1017L15.3019 7.86235L17.6944 4.48735H22.5766C22.7216 4.48728 22.8606 4.42962 22.9631 4.32704L24.7938 2.49673C28.4333 4.05395 31.4218 6.82271 33.2519 10.333ZM7.13251 5.18173L8.50563 8.01017L7.40001 8.56329C7.34567 8.59043 7.29624 8.62644 7.25376 8.66985L4.65813 11.3183C4.5864 11.3915 4.53665 11.4833 4.51455 11.5834C4.49245 11.6834 4.49889 11.7877 4.53313 11.8842L4.90532 12.9305C4.47866 13.1934 4.09226 13.5166 3.75813 13.8902L1.55282 14.2614C2.3953 10.7166 4.35065 7.53472 7.13251 5.18173ZM1.09688 18.3399H2.88844L7.40876 20.0402L9.72126 23.9552V25.522L9.04376 26.5508C8.96952 26.6633 8.93947 26.7992 8.95937 26.9325C8.97927 27.0658 9.04772 27.1871 9.15157 27.273L9.32344 27.4149L7.68313 28.3955C7.60202 28.4439 7.53486 28.5126 7.48819 28.5947C7.44153 28.6769 7.41696 28.7697 7.41688 28.8642V31.4152C5.46384 29.8372 3.88431 27.8464 2.79162 25.5858C1.69892 23.3251 1.12017 20.8506 1.09688 18.3399ZM18.1334 35.2214C14.6961 35.2245 11.3392 34.1819 8.50844 32.232C8.50844 32.2252 8.51032 32.2186 8.51032 32.2117V29.1752L10.5484 27.9564C10.6237 27.9116 10.687 27.8493 10.7332 27.7748C10.7793 27.7004 10.8069 27.6159 10.8135 27.5286C10.8202 27.4413 10.8058 27.3536 10.7715 27.273C10.7373 27.1924 10.6841 27.1212 10.6166 27.0655L10.2266 26.7427L10.7244 25.987C10.7834 25.8978 10.8148 25.7931 10.8147 25.6861V23.8055C10.8148 23.7077 10.7886 23.6118 10.7388 23.5277L8.25251 19.3183C8.18908 19.2109 8.09083 19.1284 7.97407 19.0845L3.18032 17.2811C3.11877 17.258 3.05357 17.2461 2.98782 17.2461H1.11938C1.15373 16.6306 1.22123 16.0174 1.32157 15.4092L4.13407 14.9361C4.26395 14.9142 4.38157 14.8462 4.46532 14.7445C4.83629 14.2954 5.29793 13.9298 5.82001 13.6714C5.9395 13.6117 6.03302 13.5104 6.08293 13.3865C6.13285 13.2626 6.13569 13.1248 6.09094 12.9989L5.67844 11.8389L7.97094 9.49985L9.47813 8.7461C9.60687 8.68169 9.70504 8.56914 9.75136 8.43285C9.79769 8.29656 9.78845 8.1475 9.72563 8.01798L8.00938 4.48392C10.2276 2.83877 12.8134 1.75913 15.5428 1.33849C18.2723 0.917848 21.0632 1.16888 23.6738 2.06985L22.35 3.3936H17.4116C17.3242 3.39364 17.2381 3.4146 17.1604 3.45472C17.0828 3.49484 17.0159 3.55296 16.9653 3.62423L14.105 7.65954C14.0233 7.77496 13.9894 7.91756 14.0106 8.0574C14.0317 8.19725 14.1062 8.32346 14.2184 8.40954L17.0794 10.6039L14.15 13.7652C14.0562 13.8663 14.0041 13.9991 14.0041 14.137V18.7995C14.0041 18.9118 14.0386 19.0213 14.103 19.1132C14.1674 19.2051 14.2586 19.275 14.3641 19.3133L19.2491 21.0895V23.4614C19.2491 23.5372 19.2648 23.6122 19.2953 23.6816C19.3258 23.751 19.3704 23.8133 19.4263 23.8645L21.7916 26.0327V28.0702C21.7916 28.2152 21.8492 28.3543 21.9517 28.4569C22.0543 28.5594 22.1934 28.617 22.3384 28.617H23.6031C22.9129 30.4593 22.8878 32.4848 23.5322 34.3436C21.7918 34.9257 19.9686 35.2221 18.1334 35.2214ZM31.5328 38.9527C30.0746 38.9527 28.6491 38.5204 27.4366 37.7103C26.2241 36.9001 25.279 35.7487 24.721 34.4015C24.1629 33.0542 24.0169 31.5718 24.3013 30.1416C24.5858 28.7114 25.288 27.3976 26.3191 26.3665C27.3503 25.3354 28.664 24.6332 30.0942 24.3487C31.5244 24.0642 33.0069 24.2103 34.3541 24.7683C35.7013 25.3264 36.8528 26.2714 37.6629 27.4839C38.473 28.6964 38.9054 30.1219 38.9053 31.5802C38.9031 33.5348 38.1256 35.4087 36.7435 36.7908C35.3614 38.173 33.4874 38.9504 31.5328 38.9527Z" fill="white"/>
<path d="M37.3865 28.4909L36.6912 27.7953C36.3521 27.4562 35.8921 27.2656 35.4124 27.2656C34.9328 27.2656 34.4728 27.4562 34.1337 27.7953L32.6749 29.2537L30.1874 28.6778C29.8537 28.5994 29.5054 28.6079 29.1758 28.7023C28.8462 28.7967 28.5463 28.974 28.3046 29.2172L27.73 29.7922C27.6669 29.8551 27.6202 29.9325 27.5939 30.0175C27.5676 30.1026 27.5624 30.1928 27.579 30.2804C27.5955 30.3679 27.6331 30.45 27.6886 30.5197C27.7441 30.5893 27.8158 30.6444 27.8974 30.68L30.2303 31.6987L29.3115 32.6172L27.1268 32.8197C26.9999 32.8309 26.881 32.8862 26.7906 32.9759L25.6756 34.0906C25.6083 34.158 25.5597 34.2419 25.5348 34.3338C25.5098 34.4257 25.5093 34.5226 25.5332 34.6148C25.5572 34.707 25.6048 34.7914 25.6714 34.8595C25.7379 34.9277 25.8211 34.9773 25.9128 35.0034L28.6415 35.7797C29.1674 35.9292 29.7237 35.9357 30.2529 35.7983C30.7821 35.661 31.265 35.3849 31.6518 34.9984L37.3865 29.2637C37.4373 29.213 37.4776 29.1527 37.5051 29.0864C37.5327 29.0201 37.5468 28.949 37.5468 28.8772C37.5468 28.8054 37.5327 28.7343 37.5051 28.6679C37.4776 28.6016 37.4373 28.5417 37.3865 28.4909ZM30.8784 34.2253C30.6295 34.4741 30.3187 34.652 29.9781 34.7405C29.6375 34.829 29.2794 34.8249 28.9409 34.7287L27.1078 34.2075L27.4246 33.8906L29.6093 33.6878C29.7362 33.6766 29.8552 33.6213 29.9456 33.5315L31.5706 31.9065C31.6335 31.8436 31.6802 31.7662 31.7064 31.6812C31.7327 31.5961 31.7378 31.5059 31.7212 31.4184C31.7047 31.331 31.667 31.2489 31.6115 31.1793C31.556 31.1096 31.4844 31.0547 31.4028 31.019L29.0703 30L29.0784 29.9919C29.189 29.8804 29.3263 29.7991 29.4773 29.7559C29.6282 29.7127 29.7877 29.7089 29.9406 29.745L32.724 30.3894C32.8144 30.4103 32.9086 30.4079 32.9978 30.3823C33.087 30.3567 33.1682 30.3088 33.2337 30.2431L34.9071 28.5703C35.0431 28.4401 35.2242 28.3674 35.4124 28.3674C35.6007 28.3674 35.7818 28.4401 35.9178 28.5703L36.2265 28.879L30.8784 34.2253Z" fill="white"/>
</g>
<defs>
<clipPath id="clip0_1_2285">
<rect width="40" height="40" fill="white" transform="translate(0 0.046875)"/>
</clipPath>
</defs>
</svg>
