<svg width="127" height="48" viewBox="0 0 127 48" fill="none" xmlns="http://www.w3.org/2000/svg">
<path fill-rule="evenodd" clip-rule="evenodd" d="M122.957 31.9803C123.033 32.8499 123.729 33.9567 124.934 33.9567H125.639C125.913 33.9567 126.137 33.7327 126.137 33.4592V17.9535H126.133C126.12 17.6922 125.904 17.483 125.639 17.483H123.455C123.19 17.483 122.974 17.6922 122.961 17.9535H122.957V19.2134C121.619 17.5635 119.508 16.8787 117.392 16.8787C112.582 16.8787 108.683 20.7811 108.683 25.5953C108.683 30.4099 112.582 34.3124 117.392 34.3124C119.508 34.3124 121.815 33.4911 122.957 31.9784V31.9803ZM117.4 31.2617C114.341 31.2617 111.861 28.725 111.861 25.5953C111.861 22.4663 114.341 19.9295 117.4 19.9295C120.461 19.9295 122.94 22.4663 122.94 25.5953C122.94 28.725 120.461 31.2617 117.4 31.2617Z" fill="#0D0E10"/>
<path fill-rule="evenodd" clip-rule="evenodd" d="M105.92 24.49C105.92 19.9672 103.069 16.916 98.5225 16.916C96.3521 16.916 94.573 18.172 93.9446 19.2509C93.8088 18.4073 93.3613 17.5205 91.9735 17.5205H91.2661C90.9925 17.5205 90.769 17.7447 90.769 18.0182V32.0191C90.769 32.0196 90.769 32.0206 90.769 32.0213V33.5252H90.7718C90.7861 33.786 91.0021 33.9955 91.2663 33.9955H93.451C93.4844 33.9955 93.5172 33.9915 93.5489 33.9854C93.5634 33.9825 93.5768 33.9768 93.5909 33.9729C93.6071 33.9679 93.624 33.964 93.6395 33.9576C93.6589 33.9496 93.6765 33.9388 93.6946 33.9287C93.7035 33.9232 93.7128 33.9194 93.7213 33.9138C93.7431 33.8997 93.7631 33.8827 93.7824 33.8655C93.7856 33.8623 93.7894 33.8601 93.7926 33.8572C93.8143 33.8362 93.8342 33.813 93.8517 33.7889C93.9063 33.7138 93.9397 33.6229 93.9452 33.5252H93.948V24.3656C93.948 21.9365 95.9159 19.9672 98.3433 19.9672C100.771 19.9672 102.738 21.9365 102.738 24.3656L102.74 32.0218L102.741 32.0191C102.741 32.0259 102.742 32.0329 102.742 32.0401V33.5252H102.745C102.759 33.786 102.975 33.9955 103.239 33.9955H105.424C105.458 33.9955 105.49 33.9915 105.522 33.9854C105.535 33.983 105.547 33.9777 105.56 33.9742C105.577 33.969 105.596 33.9646 105.613 33.9576C105.631 33.9502 105.647 33.9399 105.664 33.9304C105.674 33.9246 105.685 33.9204 105.695 33.9138C105.715 33.9005 105.734 33.8844 105.752 33.8687C105.756 33.8643 105.762 33.8612 105.766 33.8568C105.787 33.8368 105.805 33.8152 105.822 33.7926C105.823 33.7909 105.825 33.7896 105.826 33.7879C105.88 33.7134 105.913 33.6235 105.918 33.5265C105.918 33.5258 105.918 33.5252 105.918 33.5252H105.921L105.92 24.49Z" fill="#0D0E10"/>
<path fill-rule="evenodd" clip-rule="evenodd" d="M83.1683 31.9803C83.2447 32.8498 83.9403 33.9566 85.1453 33.9566H85.8503C86.1235 33.9566 86.3473 33.7327 86.3473 33.4591V17.9535H86.3445C86.3303 17.6922 86.1141 17.483 85.8503 17.483H83.6656C83.4014 17.483 83.1856 17.6922 83.1708 17.9535H83.1683V19.2134C81.8297 17.5635 79.7193 16.8787 77.6031 16.8787C72.7929 16.8787 68.8936 20.7811 68.8936 25.5954C68.8936 30.4098 72.7929 34.3124 77.6031 34.3124C79.7193 34.3124 82.0257 33.4912 83.1681 31.9783L83.1683 31.9803ZM77.6116 31.2616C74.5525 31.2616 72.0723 28.725 72.0723 25.5954C72.0723 22.4663 74.5525 19.9295 77.6116 19.9295C80.671 19.9295 83.1508 22.4663 83.1508 25.5954C83.1508 28.725 80.671 31.2616 77.6116 31.2616Z" fill="#0D0E10"/>
<path fill-rule="evenodd" clip-rule="evenodd" d="M55.9744 29.7596C57.4328 30.7707 59.0247 31.2618 60.5545 31.2618C62.0119 31.2618 63.5186 30.5057 63.5186 29.1896C63.5186 27.4325 60.2355 27.1591 58.1728 26.4575C56.1096 25.7559 54.3327 24.3055 54.3327 21.9568C54.3327 18.3628 57.5325 16.8784 60.5191 16.8784C62.4114 16.8784 64.3638 17.5029 65.6296 18.3975C66.0655 18.728 65.8 19.1075 65.8 19.1075L64.5918 20.8346C64.456 21.0291 64.2185 21.1972 63.8777 20.9866C63.5368 20.7762 62.3412 19.9293 60.5191 19.9293C58.6969 19.9293 57.5993 20.7715 57.5993 21.8153C57.5993 23.067 59.0258 23.4607 60.6968 23.8874C63.6087 24.6729 66.7852 25.6171 66.7852 29.1896C66.7852 32.3561 63.8255 34.3131 60.5545 34.3131C58.0757 34.3131 55.9653 33.6059 54.1953 32.306C53.8265 31.9367 54.084 31.5938 54.084 31.5938L55.2864 29.8755C55.5311 29.5542 55.8395 29.6663 55.9744 29.7596Z" fill="#0D0E10"/>
<path fill-rule="evenodd" clip-rule="evenodd" d="M47.5757 31.9803C47.652 32.8498 48.3476 33.9566 49.5525 33.9566H50.2576C50.5309 33.9566 50.7549 33.7327 50.7549 33.4591V17.9535H50.7518C50.7375 17.6922 50.5217 17.483 50.2576 17.483H48.0729C47.8087 17.483 47.5929 17.6922 47.5783 17.9535H47.5757V19.2134C46.2371 17.5635 44.1268 16.8787 42.0106 16.8787C37.2003 16.8787 33.3008 20.7811 33.3008 25.5954C33.3008 30.4098 37.2003 34.3124 42.0106 34.3124C44.1268 34.3124 46.4331 33.4912 47.5753 31.9783L47.5757 31.9803ZM42.0191 31.2616C38.9598 31.2616 36.4796 28.725 36.4796 25.5954C36.4796 22.4663 38.9598 19.9295 42.0191 19.9295C45.0783 19.9295 47.5582 22.4663 47.5582 25.5954C47.5582 28.725 45.0783 31.2616 42.0191 31.2616Z" fill="#0D0E10"/>
<path fill-rule="evenodd" clip-rule="evenodd" d="M21.0895 26.1881C17.8525 26.1881 15.2282 28.8123 15.2282 32.0497C15.2282 35.2868 17.8525 37.911 21.0895 37.911C24.3267 37.911 26.9509 35.2868 26.9509 32.0497C26.9509 28.8123 24.3267 26.1881 21.0895 26.1881ZM5.86134 26.1886C2.62424 26.1886 0 28.8123 0 32.0497C0 35.2868 2.62424 37.911 5.86134 37.911C9.09858 37.911 11.723 35.2868 11.723 32.0497C11.723 28.8123 9.09858 26.1886 5.86134 26.1886ZM19.3367 18.8612C19.3367 22.0986 16.7126 24.7231 13.4755 24.7231C10.2382 24.7231 7.61414 22.0986 7.61414 18.8612C7.61414 15.6245 10.2382 13 13.4755 13C16.7126 13 19.3367 15.6245 19.3367 18.8612Z" fill="#F06A6A"/>
</svg>
