<svg width="91" height="91" viewBox="0 0 91 91" fill="none" xmlns="http://www.w3.org/2000/svg">
<circle cx="45.5046" cy="45.5041" r="40" transform="rotate(8.55303 45.5046 45.5041)" fill="#83CD20"/>
<g clip-path="url(#clip0_1_2800)">
<path d="M60.0529 51.694C61.9307 48.0553 62.5222 43.8882 61.7312 39.8706C60.9401 35.853 58.813 32.2212 55.6959 29.5659C52.5788 26.9107 48.655 25.3881 44.5627 25.246C40.4704 25.1038 -167.995 177.335 33.1565 28.7829C29.8626 31.2155 27.4887 34.6909 26.4207 38.644C25.3528 42.597 25.6537 46.7951 27.2745 50.5554C28.8953 54.3157 31.7407 57.417 35.3478 59.3549C38.955 61.2928 43.1117 61.9533 47.1418 61.2289C47.5546 62.5064 48.2653 63.6674 49.2153 64.616C50.1653 65.5646 51.3273 66.2736 52.6054 66.6845C53.8834 67.0955 55.2409 67.1965 56.5657 66.9793C57.8905 66.7621 59.1447 66.2328 60.2246 65.4353C61.3045 64.6378 62.1793 63.5948 62.7766 62.3925C63.3739 61.1902 63.6767 59.8631 63.6599 58.5207C63.6431 57.1783 63.3073 55.8591 62.6801 54.6721C62.0529 53.4851 61.1524 52.4643 60.0529 51.694ZM59.117 51.1235C57.1676 50.101 54.8957 49.8809 52.7863 50.5101L53.787 49.2458C53.8462 49.171 53.8847 49.0821 53.8988 48.9877L54.2834 46.4306L56.2239 44.9546C56.3373 44.8685 56.4125 44.7414 56.4335 44.6006L56.7644 42.4007C56.7822 42.2826 56.7608 42.1619 56.7035 42.0571C56.6462 41.9524 56.5562 41.8692 56.4472 41.8205L53.6049 40.5473L52.8307 38.2359C52.8033 38.1541 52.7569 38.08 52.6953 38.0195C52.6338 37.9591 52.5589 37.914 52.4766 37.8881L48.3703 36.5939L48.4324 36.1811L54.2987 35.7784L56.1014 38.2174C56.1876 38.3341 56.3166 38.4118 56.4601 38.4335L60.4094 39.0274C61.4836 43.0806 61.0234 47.3876 59.1172 51.1223L59.117 51.1235ZM60.0546 37.8693L56.8463 37.3868L55.0015 34.8877C54.9469 34.8139 54.8746 34.7549 54.7912 34.7163C54.7078 34.6777 54.6161 34.6607 54.5244 34.6668L47.9195 35.1199C47.7953 35.1284 47.6778 35.1791 47.5863 35.2634C47.4948 35.3478 47.4348 35.4608 47.4161 35.5839L47.2192 36.8936C47.1999 37.0224 47.2271 37.1539 47.2962 37.2644C47.3652 37.3749 47.4714 37.4571 47.5956 37.4962L51.8821 38.8469L52.6438 41.1217C52.6678 41.1934 52.7064 41.2593 52.7571 41.3153C52.8079 41.3713 52.8697 41.4161 52.9387 41.447L55.6211 42.6484L55.385 44.2182L53.4445 45.6942C53.3313 45.7804 53.256 45.9074 53.2349 46.0482L52.8389 48.6808L50.5845 51.53C49.7655 52.0622 49.044 52.7313 48.4516 53.5079L47.2464 53.3266L47.5038 51.6149C47.5151 51.54 47.5107 51.4635 47.4908 51.3903C47.471 51.3172 47.4362 51.2489 47.3886 51.1899L45.3724 48.6939L45.7463 46.2075C45.763 46.0965 45.7451 45.983 45.6951 45.8826C45.6451 45.7821 45.5654 45.6995 45.4667 45.6459L40.9002 43.1629L41.5044 39.1455L45.1734 36.212C45.2328 36.1645 45.2817 36.1051 45.3169 36.0376C45.3521 35.9701 45.3728 35.8961 45.3777 35.8201C45.3826 35.7442 45.3716 35.6681 45.3454 35.5966C45.3192 35.5252 45.2784 35.46 45.2255 35.4052L42.6717 32.7565L45.5395 29.7749L50.3674 30.501C50.5108 30.5225 50.6569 30.4861 50.7735 30.4L52.856 28.8623C56.2235 30.9435 58.7669 34.1259 60.0546 37.8693ZM34.9918 28.8907L35.929 31.8919L34.7534 32.2745C34.6957 32.2932 34.6414 32.3215 34.593 32.3581L31.6323 34.591C31.5505 34.6527 31.4877 34.7362 31.4509 34.8318C31.4142 34.9275 31.405 35.0315 31.4245 35.1321L31.637 36.2221C31.176 36.4186 30.7458 36.6808 30.3598 37.0005L28.1238 37.0396C29.4841 33.6595 31.891 30.8038 34.9918 28.8907ZM27.0664 41.0049L28.838 41.2713L33.0552 43.625L34.7597 47.8404L34.5267 49.3898L33.7037 50.3064C33.6136 50.4066 33.5637 50.5366 33.5635 50.6713C33.5634 50.8061 33.613 50.9362 33.7029 51.0366L33.8518 51.2024L32.0839 51.9282C31.9965 51.9641 31.9198 52.022 31.8615 52.0963C31.8031 52.1706 31.765 52.2587 31.7509 52.3521L31.3715 54.8747C29.6749 53.0238 28.409 50.8202 27.6646 48.4222C26.9203 46.0242 26.716 43.4912 27.0664 41.0049ZM41.4028 60.2324C38.0032 59.7243 34.8387 58.194 32.3294 55.8448C32.3304 55.838 32.3333 55.8318 32.3343 55.825L32.7859 52.8222L34.9826 51.9202C35.0637 51.887 35.1356 51.8348 35.1923 51.7681C35.249 51.7013 35.2888 51.6219 35.3084 51.5365C35.328 51.4512 35.3268 51.3624 35.3049 51.2776C35.283 51.1928 35.241 51.1145 35.1825 51.0493L34.8448 50.672L35.4495 49.9989C35.5211 49.9194 35.5678 49.8205 35.5836 49.7147L35.8633 47.855C35.8779 47.7584 35.8662 47.6595 35.8295 47.569L33.9969 43.0366C33.9502 42.921 33.8653 42.8248 33.7563 42.7641L29.2841 40.2678C29.2267 40.2357 29.164 40.2143 29.099 40.2045L27.2513 39.9266C27.3768 39.3231 27.5348 38.7268 27.7244 38.1403L30.576 38.0907C30.7077 38.0884 30.8342 38.0386 30.9321 37.9505C31.3657 37.5616 31.8766 37.2686 32.4313 37.0908C32.5583 37.0496 32.6659 36.9633 32.7337 36.8482C32.8015 36.7331 32.8248 36.5972 32.7992 36.4661L32.5639 35.2576L35.1787 33.2855L36.7813 32.7643C36.9182 32.7198 37.032 32.6231 37.0981 32.4952C37.1641 32.3673 37.1772 32.2185 37.1343 32.0811L35.9627 28.3311C38.401 27.0341 41.1186 26.3511 43.8802 26.3411C46.6419 26.331 49.3644 26.9943 51.8119 28.2736L50.306 29.3857L45.4225 28.6512C45.3361 28.6383 45.2478 28.6462 45.1651 28.6743C45.0824 28.7025 45.0075 28.75 44.9469 28.8129L41.5183 32.378C41.4203 32.4799 41.3656 32.6159 41.3657 32.7574C41.3658 32.8988 41.4207 33.0347 41.5189 33.1365L44.0217 35.732L40.6547 38.4224C40.5469 38.5084 40.4756 38.632 40.4551 38.7684L39.7617 43.3791C39.745 43.4901 39.7629 43.6035 39.8129 43.704C39.8629 43.8044 39.9426 43.8871 40.0413 43.9406L44.6078 46.4237L44.255 48.7692C44.2438 48.8441 44.2482 48.9206 44.268 48.9938C44.2879 49.0669 44.3227 49.1351 44.3703 49.1942L46.3868 51.6899L46.0838 53.7048C46.0622 53.8482 46.0985 53.9943 46.1847 54.111C46.2708 54.2277 46.3998 54.3053 46.5433 54.3269L47.7939 54.515C46.8374 56.2341 46.5113 58.2334 46.8721 60.1673C45.0644 60.4841 43.2174 60.5061 41.4028 60.2324ZM54.0982 65.915C52.6562 65.6982 51.3108 65.0586 50.2323 64.0772C49.1538 63.0958 48.3905 61.8166 48.039 60.4013C47.6875 58.9861 47.7636 57.4984 48.2576 56.1264C48.7516 54.7544 49.6414 53.5597 50.8144 52.6934C51.9874 51.8271 53.391 51.3281 54.8476 51.2595C56.3042 51.1909 57.7484 51.5558 58.9977 52.308C60.2469 53.0602 61.245 54.166 61.8658 55.4855C62.4866 56.805 62.7021 58.279 62.4852 59.721C62.1923 61.6535 61.1448 63.391 59.5725 64.5522C58.0001 65.7134 56.0314 66.2035 54.0982 65.915Z" fill="white"/>
<path d="M61.4434 56.4401L60.8592 55.6488C60.5743 55.2629 60.1478 55.0061 59.6735 54.9348C59.1992 54.8635 58.716 54.9835 58.3302 55.2684L56.6707 56.4937L54.2966 55.5542C53.9782 55.427 53.6325 55.3836 53.2925 55.4279C52.9526 55.4723 52.6296 55.603 52.3545 55.8075L51.7007 56.2907C51.629 56.3435 51.5713 56.4131 51.5326 56.4933C51.4939 56.5735 51.4754 56.662 51.4787 56.751C51.482 56.84 51.5071 56.9268 51.5516 57.0039C51.5961 57.0811 51.6588 57.1462 51.7343 57.1935L53.8896 58.5479L52.8445 59.3195L50.654 59.1948C50.5268 59.1871 50.401 59.224 50.2982 59.2993L49.0298 60.2358C48.9533 60.2924 48.8928 60.3681 48.8544 60.4553C48.8161 60.5425 48.8011 60.6382 48.8111 60.733C48.8211 60.8277 48.8556 60.9182 48.9113 60.9955C48.967 61.0728 49.0419 61.1342 49.1286 61.1737L51.7116 62.3471C52.2094 62.5733 52.7585 62.6624 53.3023 62.6053C53.846 62.5482 54.3647 62.3469 54.8046 62.0223L61.3284 57.2043C61.3862 57.1617 61.435 57.1081 61.4721 57.0466C61.5092 56.9851 61.5337 56.9169 61.5444 56.8458C61.5551 56.7748 61.5517 56.7024 61.5343 56.6327C61.517 56.5631 61.4861 56.4978 61.4434 56.4401ZM54.1548 61.1427C53.8717 61.3518 53.5379 61.4814 53.1879 61.5183C52.8379 61.5552 52.4844 61.4979 52.1639 61.3524L50.4287 60.5643L50.7892 60.2981L52.9798 60.4225C53.1069 60.4303 53.2328 60.3933 53.3355 60.318L55.1841 58.9527C55.2557 58.8998 55.3134 58.8303 55.352 58.7501C55.3906 58.6698 55.409 58.5814 55.4057 58.4925C55.4023 58.4035 55.3773 58.3167 55.3328 58.2396C55.2882 58.1625 55.2255 58.0975 55.1502 58.0501L52.9952 56.6955L53.0044 56.6887C53.1303 56.5949 53.2782 56.535 53.4339 56.5147C53.5896 56.4944 53.748 56.5144 53.8937 56.5728L56.5504 57.6239C56.6366 57.6581 56.7302 57.6697 56.8222 57.6577C56.9142 57.6456 57.0016 57.6103 57.0761 57.5551L58.9797 56.1498C59.1336 56.0413 59.3234 55.9963 59.5096 56.0243C59.6958 56.0523 59.864 56.1511 59.9791 56.3001L60.2385 56.6513L54.1548 61.1427Z" fill="white"/>
</g>
<defs>
<clipPath id="clip0_1_2800">
<rect width="40" height="40" fill="white" transform="translate(28.7012 22.752) rotate(8.55303)"/>
</clipPath>
</defs>
</svg>
