<svg width="80" height="80" viewBox="0 0 80 80" fill="none" xmlns="http://www.w3.org/2000/svg">
<circle cx="40" cy="40" r="40" fill="#83CD20"/>
<path d="M58.2031 35.2989H56.0562C56.8555 33.8538 57.2636 32.2251 57.2403 30.5739C57.2171 28.9227 56.7632 27.3062 55.9235 25.8842C55.0839 24.4623 53.8876 23.2841 52.453 22.4662C51.0184 21.6484 49.3951 21.2192 47.7437 21.2211C46.2274 21.2259 44.7339 21.592 43.3873 22.2891C42.0406 22.9862 40.8794 23.9942 40 25.2295C38.5991 23.2487 36.4929 21.8796 34.1139 21.4034C31.735 20.9272 29.2641 21.3801 27.2087 22.6691C25.1533 23.9581 23.6695 25.9852 23.0623 28.3341C22.455 30.683 22.7703 33.1753 23.9434 35.2989H21.7969C21.3205 35.2995 20.8638 35.489 20.5269 35.8258C20.1901 36.1627 20.0006 36.6194 20 37.0958V56.9811C20.0006 57.4575 20.1901 57.9142 20.5269 58.251C20.8638 58.5879 21.3205 58.7774 21.7969 58.778H58.2031C58.6795 58.7775 59.1363 58.588 59.4732 58.2511C59.81 57.9143 59.9995 57.4575 60 56.9811V37.0958C59.9995 36.6194 59.81 36.1626 59.4732 35.8258C59.1363 35.4889 58.6795 35.2994 58.2031 35.2989ZM47.7431 22.3148C49.2561 22.3145 50.741 22.7227 52.0412 23.4963C53.3414 24.2699 54.4087 25.3802 55.1302 26.71C55.8518 28.0398 56.2009 29.5397 56.1408 31.0515C56.0806 32.5632 55.6134 34.0307 54.7884 35.2989H53.0219C54.1333 34.0325 54.7444 32.4041 54.7406 30.7192C54.7409 29.1118 54.1877 27.5534 53.1741 26.3059C52.1605 25.0584 50.7483 24.1979 49.1749 23.8691C47.6015 23.5404 45.9629 23.7633 44.5346 24.5006C43.1062 25.2378 41.9753 26.4444 41.3319 27.9173C41.1531 27.3404 40.9193 26.7819 40.6338 26.2495C41.3921 25.0486 42.4412 24.0583 43.6839 23.3706C44.9266 22.6828 46.3228 22.3197 47.7431 22.3148ZM41.3319 33.5227C41.6168 34.1689 41.9987 34.7679 42.4644 35.2989H40.5703C40.8844 34.7345 41.1396 34.1393 41.3319 33.5227ZM41.8391 30.7183C41.8368 29.7203 42.0876 28.738 42.5679 27.8632C43.0483 26.9884 43.7425 26.2496 44.5858 25.7159C45.4291 25.1822 46.394 24.8709 47.3902 24.8112C48.3864 24.7515 49.3815 24.9453 50.2825 25.3745C51.1835 25.8036 51.961 26.4542 52.5424 27.2654C53.1238 28.0765 53.4901 29.0218 53.6071 30.0129C53.7241 31.0041 53.5879 32.0087 53.2114 32.9329C52.8348 33.8571 52.2301 34.6708 51.4538 35.298H44.0312C43.3457 34.7479 42.7927 34.0507 42.4132 33.258C42.0338 32.4652 41.8375 31.5972 41.8391 30.7183ZM23.8528 30.7183C23.8526 29.4104 24.1578 28.1204 24.7439 26.9512C25.33 25.7819 26.1809 24.7656 27.229 23.9831C28.277 23.2006 29.4932 22.6735 30.7808 22.4438C32.0684 22.2141 33.3918 22.2881 34.6458 22.6599C35.8998 23.0317 37.0497 23.691 38.004 24.5854C38.9583 25.4799 39.6906 26.5847 40.1428 27.812C40.5949 29.0393 40.7544 30.3551 40.6085 31.6549C40.4625 32.9547 40.0152 34.2024 39.3022 35.2989H37.5356C38.6469 34.0325 39.2581 32.4041 39.2544 30.7192C39.2605 29.7963 39.0841 28.8813 38.7352 28.0268C38.3863 27.1724 37.8718 26.3954 37.2213 25.7406C36.5709 25.0858 35.7974 24.5661 34.9453 24.2115C34.0932 23.8569 33.1793 23.6743 32.2564 23.6743C31.3335 23.6743 30.4196 23.8569 29.5675 24.2115C28.7154 24.5661 27.9419 25.0858 27.2915 25.7406C26.641 26.3954 26.1266 27.1724 25.7776 28.0268C25.4287 28.8813 25.2523 29.7963 25.2584 30.7192C25.2547 32.4041 25.8658 34.0325 26.9772 35.2989H25.2116C24.3221 33.937 23.8498 32.3449 23.8528 30.7183ZM26.3528 30.7183C26.3509 29.7204 26.6019 28.7384 27.0824 27.8638C27.5629 26.9893 28.2572 26.2508 29.1005 25.7173C29.9437 25.1838 30.9085 24.8727 31.9045 24.8131C32.9006 24.7535 33.8955 24.9474 34.7964 25.3765C35.6973 25.8056 36.4747 26.4561 37.056 27.2671C37.6374 28.0781 38.0037 29.0232 38.1208 30.0142C38.2379 31.0051 38.1019 32.0096 37.7255 32.9338C37.3492 33.8579 36.7448 34.6716 35.9688 35.2989H28.5462C27.8603 34.749 27.3069 34.0517 26.9272 33.2587C26.5475 32.4657 26.3512 31.5975 26.3528 30.7183ZM58.9062 56.9811C58.906 57.1675 58.8318 57.3462 58.7 57.478C58.5682 57.6098 58.3895 57.684 58.2031 57.6842H21.7969C21.6105 57.684 21.4318 57.6098 21.3 57.478C21.1682 57.3462 21.094 57.1675 21.0938 56.9811V37.0958C21.094 36.9094 21.1682 36.7307 21.3 36.5989C21.4318 36.4671 21.6105 36.3929 21.7969 36.3927H58.2031C58.3895 36.3929 58.5682 36.4671 58.7 36.5989C58.8318 36.7307 58.906 36.9094 58.9062 37.0958V56.9811Z" fill="white"/>
<path d="M56.9531 40.6336C56.3471 40.6329 55.766 40.3919 55.3375 39.9633C54.9089 39.5348 54.6678 38.9537 54.6672 38.3477C54.6672 38.2026 54.6096 38.0635 54.507 37.961C54.4045 37.8584 54.2654 37.8008 54.1203 37.8008H25.8797C25.7346 37.8008 25.5955 37.8584 25.493 37.961C25.3904 38.0635 25.3328 38.2026 25.3328 38.3477C25.3322 38.9537 25.0911 39.5348 24.6625 39.9633C24.234 40.3919 23.6529 40.6329 23.0469 40.6336C22.9019 40.6337 22.7628 40.6913 22.6603 40.7939C22.5577 40.8964 22.5001 41.0355 22.5 41.1805V52.8992C22.5 53.0443 22.5576 53.1834 22.6602 53.2859C22.7627 53.3885 22.9018 53.4461 23.0469 53.4461C23.653 53.4468 24.234 53.688 24.6626 54.1166C25.0911 54.5452 25.3322 55.1262 25.3328 55.7323C25.3328 55.8774 25.3904 56.0165 25.493 56.119C25.5955 56.2216 25.7346 56.2792 25.8797 56.2792H54.1203C54.2654 56.2792 54.4045 56.2216 54.507 56.119C54.6096 56.0165 54.6672 55.8774 54.6672 55.7323C54.6678 55.1262 54.9089 54.5452 55.3374 54.1166C55.766 53.688 56.347 53.4468 56.9531 53.4461C57.025 53.4461 57.0961 53.432 57.1625 53.4045C57.2288 53.3771 57.2891 53.3368 57.3399 53.286C57.3907 53.2352 57.431 53.1749 57.4585 53.1085C57.4859 53.0422 57.5 52.971 57.5 52.8992V41.1805C57.5 41.0354 57.4424 40.8963 57.3398 40.7938C57.2373 40.6912 57.0982 40.6336 56.9531 40.6336ZM26.3822 55.1861C26.2666 54.4884 25.9356 53.8443 25.4355 53.3442C24.9355 52.8441 24.2915 52.513 23.5938 52.3973V41.6833C24.2914 41.5676 24.9354 41.2365 25.4355 40.7364C25.9355 40.2363 26.2666 39.5922 26.3822 38.8945H35.6444C34.169 39.6827 32.9353 40.8569 32.0752 42.2915C31.2151 43.7262 30.7608 45.3676 30.7608 47.0403C30.7608 48.7131 31.2151 50.3544 32.0752 51.7891C32.9353 53.2238 34.169 54.3979 35.6444 55.1861H26.3822ZM40 38.8945C41.6111 38.8945 43.1861 39.3722 44.5258 40.2672C45.8654 41.1623 46.9095 42.4345 47.5261 43.923C48.1427 45.4115 48.304 47.0494 47.9897 48.6296C47.6754 50.2098 46.8996 51.6613 45.7604 52.8005C44.6211 53.9398 43.1696 54.7156 41.5894 55.0299C40.0092 55.3442 38.3713 55.1829 36.8829 54.5663C35.3944 53.9497 34.1221 52.9056 33.2271 51.5659C32.332 50.2263 31.8543 48.6513 31.8544 47.0402C31.8572 44.8807 32.7163 42.8104 34.2433 41.2834C35.7703 39.7564 37.8405 38.8973 40 38.8945ZM56.4062 52.3973C55.7084 52.5128 55.0643 52.8438 54.5641 53.344C54.064 53.8441 53.733 54.4883 53.6175 55.1861H44.3556C45.831 54.3979 47.0647 53.2238 47.9248 51.7891C48.7849 50.3544 49.2392 48.7131 49.2392 47.0403C49.2392 45.3676 48.7849 43.7262 47.9248 42.2915C47.0647 40.8569 45.831 39.6827 44.3556 38.8945H53.6175C53.7331 39.5923 54.0641 40.2364 54.5642 40.7365C55.0644 41.2367 55.7085 41.5677 56.4062 41.6833V52.3973Z" fill="white"/>
<path d="M41.8065 49.4214H36.9434C36.7983 49.4214 36.6592 49.479 36.5567 49.5816C36.4541 49.6841 36.3965 49.8232 36.3965 49.9683C36.3965 50.1133 36.4541 50.2524 36.5567 50.355C36.6592 50.4575 36.7983 50.5152 36.9434 50.5152H38.3155V51.8705C38.3155 52.0155 38.3732 52.1546 38.4757 52.2572C38.5783 52.3597 38.7174 52.4173 38.8624 52.4173C39.0075 52.4173 39.1466 52.3597 39.2491 52.2572C39.3517 52.1546 39.4093 52.0155 39.4093 51.8705V50.5152H40.5905V51.8705C40.5905 52.0155 40.6482 52.1546 40.7507 52.2572C40.8533 52.3597 40.9924 52.4173 41.1374 52.4173C41.2825 52.4173 41.4216 52.3597 41.5241 52.2572C41.6267 52.1546 41.6843 52.0155 41.6843 51.8705V50.5152H41.8065C42.2829 50.5147 42.7396 50.3252 43.0765 49.9883C43.4134 49.6514 43.6029 49.1947 43.6034 48.7183V47.0386C43.6034 46.8936 43.5457 46.7545 43.4432 46.6519C43.3406 46.5493 43.2015 46.4917 43.0565 46.4917H37.4902V45.3589C37.4905 45.1725 37.5646 44.9938 37.6964 44.862C37.8283 44.7302 38.007 44.656 38.1934 44.6558H43.0565C43.2015 44.6558 43.3406 44.5982 43.4432 44.4956C43.5457 44.393 43.6034 44.2539 43.6034 44.1089C43.6034 43.9639 43.5457 43.8248 43.4432 43.7222C43.3406 43.6196 43.2015 43.562 43.0565 43.562H41.6843V42.207C41.6843 42.062 41.6267 41.9229 41.5241 41.8203C41.4216 41.7178 41.2825 41.6602 41.1374 41.6602C40.9924 41.6602 40.8533 41.7178 40.7507 41.8203C40.6482 41.9229 40.5905 42.062 40.5905 42.207V43.5623H39.4093V42.207C39.4093 42.062 39.3517 41.9229 39.2491 41.8203C39.1466 41.7178 39.0075 41.6602 38.8624 41.6602C38.7174 41.6602 38.5783 41.7178 38.4757 41.8203C38.3732 41.9229 38.3155 42.062 38.3155 42.207V43.5623H38.1934C37.717 43.5628 37.2602 43.7523 36.9233 44.0892C36.5865 44.4261 36.397 44.8828 36.3965 45.3592V47.0389C36.3964 47.1107 36.4106 47.1819 36.438 47.2482C36.4655 47.3146 36.5058 47.3749 36.5566 47.4257C36.6074 47.4765 36.6677 47.5168 36.734 47.5442C36.8004 47.5717 36.8715 47.5858 36.9434 47.5858H42.5096V48.7186C42.5093 48.9049 42.4351 49.0836 42.3033 49.2153C42.1715 49.347 41.9928 49.4212 41.8065 49.4214Z" fill="white"/>
<path d="M34.0141 27.3755L32.2572 29.2096L30.5004 27.3755C30.4507 27.3237 30.3912 27.2821 30.3255 27.2532C30.2597 27.2243 30.1889 27.2087 30.1171 27.2072C30.0453 27.2056 29.9739 27.2183 29.907 27.2444C29.8401 27.2704 29.7789 27.3094 29.7271 27.3591C29.6752 27.4088 29.6337 27.4682 29.6048 27.534C29.5759 27.5998 29.5602 27.6706 29.5587 27.7424C29.5572 27.8142 29.5698 27.8856 29.5959 27.9525C29.622 28.0194 29.661 28.0805 29.7107 28.1324L30.976 29.453H30.265C30.12 29.453 29.9809 29.5106 29.8783 29.6132C29.7758 29.7158 29.7182 29.8549 29.7182 29.9999C29.7182 30.1449 29.7758 30.284 29.8783 30.3866C29.9809 30.4892 30.12 30.5468 30.265 30.5468H31.7104V31.2505H30.265C30.12 31.2505 29.9809 31.3081 29.8783 31.4107C29.7758 31.5133 29.7182 31.6524 29.7182 31.7974C29.7182 31.9424 29.7758 32.0815 29.8783 32.1841C29.9809 32.2867 30.12 32.3443 30.265 32.3443H31.7104V33.3208C31.7104 33.4659 31.768 33.605 31.8705 33.7075C31.9731 33.8101 32.1122 33.8677 32.2572 33.8677C32.4023 33.8677 32.5414 33.8101 32.6439 33.7075C32.7465 33.605 32.8041 33.4659 32.8041 33.3208V32.3443H34.2504C34.3954 32.3443 34.5345 32.2867 34.6371 32.1841C34.7396 32.0815 34.7972 31.9424 34.7972 31.7974C34.7972 31.6524 34.7396 31.5133 34.6371 31.4107C34.5345 31.3081 34.3954 31.2505 34.2504 31.2505H32.8041V30.5474H34.2504C34.3954 30.5474 34.5345 30.4898 34.6371 30.3872C34.7396 30.2847 34.7972 30.1456 34.7972 30.0005C34.7972 29.8555 34.7396 29.7164 34.6371 29.6138C34.5345 29.5113 34.3954 29.4537 34.2504 29.4537H33.5385L34.8041 28.133C34.9046 28.0283 34.9593 27.8879 34.9562 27.7428C34.9532 27.5977 34.8926 27.4597 34.7879 27.3593C34.6831 27.2588 34.5427 27.2041 34.3976 27.2072C34.2525 27.2102 34.1146 27.2708 34.0141 27.3755Z" fill="white"/>
<path d="M49.5004 27.3755L47.7439 29.2096L45.9867 27.3755C45.937 27.3237 45.8776 27.2821 45.8118 27.2532C45.746 27.2243 45.6752 27.2087 45.6034 27.2072C45.5316 27.2056 45.4602 27.2183 45.3933 27.2443C45.3264 27.2704 45.2653 27.3094 45.2134 27.3591C45.1616 27.4088 45.12 27.4682 45.0911 27.534C45.0622 27.5997 45.0466 27.6705 45.045 27.7423C45.0435 27.8142 45.0562 27.8856 45.0822 27.9525C45.1083 28.0194 45.1473 28.0805 45.197 28.1324L46.4623 29.453H45.7504C45.6054 29.453 45.4663 29.5106 45.3637 29.6132C45.2612 29.7157 45.2036 29.8548 45.2036 29.9999C45.2036 30.1449 45.2612 30.284 45.3637 30.3866C45.4663 30.4891 45.6054 30.5468 45.7504 30.5468H47.1957V31.2505H45.7504C45.6054 31.2505 45.4663 31.3081 45.3637 31.4107C45.2612 31.5132 45.2036 31.6523 45.2036 31.7974C45.2036 31.9424 45.2612 32.0815 45.3637 32.1841C45.4663 32.2866 45.6054 32.3443 45.7504 32.3443H47.1957V33.3208C47.1957 33.4659 47.2534 33.605 47.3559 33.7075C47.4585 33.8101 47.5976 33.8677 47.7426 33.8677C47.8877 33.8677 48.0268 33.8101 48.1293 33.7075C48.2319 33.605 48.2895 33.4659 48.2895 33.3208V32.3443H49.7348C49.8798 32.3443 50.0189 32.2866 50.1215 32.1841C50.2241 32.0815 50.2817 31.9424 50.2817 31.7974C50.2817 31.6523 50.2241 31.5132 50.1215 31.4107C50.0189 31.3081 49.8798 31.2505 49.7348 31.2505H48.2904V30.5474H49.7357C49.8808 30.5474 50.0199 30.4898 50.1224 30.3872C50.225 30.2846 50.2826 30.1455 50.2826 30.0005C50.2826 29.8555 50.225 29.7164 50.1224 29.6138C50.0199 29.5113 49.8808 29.4536 49.7357 29.4536H49.0248L50.2901 28.133C50.3399 28.0812 50.3789 28.02 50.405 27.9531C50.4311 27.8861 50.4438 27.8147 50.4423 27.7429C50.4408 27.671 50.4252 27.6002 50.3963 27.5344C50.3674 27.4686 50.3259 27.4092 50.274 27.3594C50.2222 27.3097 50.161 27.2706 50.0941 27.2445C50.0272 27.2184 49.9557 27.2058 49.8839 27.2072C49.8121 27.2087 49.7412 27.2244 49.6754 27.2532C49.6096 27.2821 49.5502 27.3237 49.5004 27.3755Z" fill="white"/>
</svg>
