<svg width="40" height="34" viewBox="0 0 40 34" fill="none" xmlns="http://www.w3.org/2000/svg">
<g clip-path="url(#clip0_1_2774)">
<path d="M18.0945 33.3242C14.8636 33.3242 11.7052 32.3661 9.01885 30.5711C6.33247 28.7761 4.23868 26.2248 3.00227 23.2399C1.76587 20.2549 1.44237 16.9704 2.07268 13.8016C2.703 10.6328 4.25882 7.72203 6.5434 5.43744C8.82798 3.15286 11.7387 1.59704 14.9075 0.966725C18.0763 0.33641 21.3609 0.65991 24.3458 1.89632C27.3308 3.13273 29.8821 5.22651 31.6771 7.91289C33.472 10.5993 34.4301 13.7576 34.4301 16.9885C34.4253 21.3195 32.7027 25.4718 29.6402 28.5343C26.5777 31.5968 22.4255 33.3194 18.0945 33.3242Z" fill="#83CD20"/>
<path d="M18.094 32.3291C21.1279 32.3291 24.0938 31.4294 26.6164 29.7438C29.1391 28.0582 31.1053 25.6624 32.2663 22.8594C33.4274 20.0563 33.7312 16.972 33.1393 13.9963C32.5474 11.0206 31.0864 8.28728 28.941 6.14193C26.7957 3.99659 24.0623 2.53559 21.0867 1.94369C18.111 1.35179 15.0266 1.65557 12.2236 2.81662C9.42055 3.97768 7.02476 5.94385 5.33917 8.46651C3.65358 10.9892 2.75391 13.955 2.75391 16.989C2.7587 21.056 4.37642 24.955 7.2522 27.8308C10.128 30.7065 14.027 32.3243 18.094 32.3291Z" fill="#034833"/>
<path d="M38.2725 11.196C38.0139 11.1003 37.326 10.2883 34.2358 10.5469C33.2014 10.6348 30.2042 11.5813 26.4157 12.7631L17.5458 9.18408L14.8719 9.46854L22.0015 14.1414C19.5318 14.9017 16.9329 15.6749 14.4271 16.3473L9.21119 12.7269L7.76562 13.1199L12.1825 18.7626L10.9076 21.4054L12.7566 21.1856L13.9823 19.4142C17.4592 19.3033 20.9201 18.8923 24.3263 18.1859L22.5937 25.168L24.784 24.2268L28.1768 17.3506C38.8647 14.7957 39.7853 12.8407 39.987 12.295C40.2042 11.6744 38.5337 11.2942 38.2725 11.196Z" fill="#83CD20"/>
<path d="M4.25098 27.981L22.0063 24.7485L22.3425 22.8013L4.25098 27.981Z" fill="#83CD20"/>
<path d="M2.22656 25.2502L22.692 21.1721L23.1058 19.0981L2.22656 25.2502Z" fill="#83CD20"/>
<path d="M10.548 20.582L1.02637 22.5422L11.1453 19.395L10.548 20.582Z" fill="#83CD20"/>
<path d="M10.6082 17.7681L0.4375 20.0516L9.8841 16.9458L10.6082 17.7681Z" fill="#83CD20"/>
<path d="M9.04577 15.4739L0 17.5633L8.3217 14.6489L9.04577 15.4739Z" fill="#83CD20"/>
</g>
<defs>
<clipPath id="clip0_1_2774">
<rect width="40" height="32.6713" fill="white" transform="translate(0 0.656738)"/>
</clipPath>
</defs>
</svg>
