<svg width="25" height="19" viewBox="0 0 25 19" fill="none" xmlns="http://www.w3.org/2000/svg">
<path d="M22.6562 0.25C23.9258 0.25 25 1.32422 25 2.59375C25 3.375 24.6094 4.05859 24.0234 4.49805L13.4277 12.457C12.8418 12.8965 12.1094 12.8965 11.5234 12.457L0.927734 4.49805C0.341797 4.05859 0 3.375 0 2.59375C0 1.32422 1.02539 0.25 2.34375 0.25H22.6562ZM10.5957 13.7266C11.7188 14.5566 13.2324 14.5566 14.3555 13.7266L25 5.71875V15.875C25 17.6328 23.584 19 21.875 19H3.125C1.36719 19 0 17.6328 0 15.875V5.71875L10.5957 13.7266Z" fill="#83CD20"/>
</svg>
