<svg width="20" height="21" viewBox="0 0 20 21" fill="none" xmlns="http://www.w3.org/2000/svg">
<path d="M10 20.5C4.45312 20.5 0 16.0469 0 10.5C0 4.99219 4.45312 0.5 10 0.5C15.5078 0.5 20 4.99219 20 10.5C20 16.0469 15.5078 20.5 10 20.5ZM9.0625 10.5C9.0625 10.8125 9.21875 11.125 9.45312 11.2812L13.2031 13.7812C13.6328 14.0938 14.2188 13.9766 14.4922 13.5469C14.8047 13.1172 14.6875 12.5312 14.2578 12.2188L10.9375 10.0312V5.1875C10.9375 4.67969 10.5078 4.25 9.96094 4.25C9.45312 4.25 9.02344 4.67969 9.02344 5.1875L9.0625 10.5Z" fill="#83CD20"/>
</svg>
