<svg width="14" height="14" viewBox="0 0 14 14" fill="none" xmlns="http://www.w3.org/2000/svg">
<path d="M12.1875 0.8125C12.6855 0.8125 13.125 1.25195 13.125 1.7793V13C13.125 13.5273 12.6855 13.9375 12.1875 13.9375H0.908203C0.410156 13.9375 0 13.5273 0 13V1.7793C0 1.25195 0.410156 0.8125 0.908203 0.8125H12.1875ZM3.95508 12.0625V5.82227H2.02148V12.0625H3.95508ZM2.98828 4.94336C3.60352 4.94336 4.10156 4.44531 4.10156 3.83008C4.10156 3.21484 3.60352 2.6875 2.98828 2.6875C2.34375 2.6875 1.8457 3.21484 1.8457 3.83008C1.8457 4.44531 2.34375 4.94336 2.98828 4.94336ZM11.25 12.0625V8.63477C11.25 6.96484 10.8691 5.64648 8.90625 5.64648C7.96875 5.64648 7.32422 6.17383 7.06055 6.67188H7.03125V5.82227H5.18555V12.0625H7.11914V8.98633C7.11914 8.16602 7.26562 7.375 8.29102 7.375C9.28711 7.375 9.28711 8.3125 9.28711 9.01562V12.0625H11.25Z" fill="white"/>
</svg>
