<svg width="19" height="26" viewBox="0 0 19 26" fill="none" xmlns="http://www.w3.org/2000/svg">
<path d="M8.20312 24.5391C5.66406 21.3652 0 13.7969 0 9.5C0 4.32422 4.15039 0.125 9.375 0.125C14.5508 0.125 18.75 4.32422 18.75 9.5C18.75 13.7969 13.0371 21.3652 10.498 24.5391C9.91211 25.2715 8.78906 25.2715 8.20312 24.5391ZM9.375 12.625C11.084 12.625 12.5 11.2578 12.5 9.5C12.5 7.79102 11.084 6.375 9.375 6.375C7.61719 6.375 6.25 7.79102 6.25 9.5C6.25 11.2578 7.61719 12.625 9.375 12.625Z" fill="#83CD20"/>
</svg>
