<svg width="40" height="41" viewBox="0 0 40 41" fill="none" xmlns="http://www.w3.org/2000/svg">
<path d="M38.2031 15.3458H36.0562C36.8555 13.9007 37.2636 12.272 37.2403 10.6208C37.2171 8.96962 36.7632 7.35309 35.9235 5.93111C35.0839 4.50913 33.8876 3.33095 32.453 2.5131C31.0184 1.69525 29.3951 1.26606 27.7437 1.26797C26.2274 1.27277 24.7339 1.63888 23.3873 2.33597C22.0406 3.03306 20.8794 4.04105 20 5.27641C18.5991 3.2956 16.4929 1.92646 14.1139 1.45027C11.735 0.974076 9.26405 1.42699 7.20866 2.71596C5.15328 4.00493 3.66955 6.03209 3.06228 8.38098C2.45501 10.7299 2.77032 13.2221 3.94344 15.3458H1.79688C1.32049 15.3464 0.863786 15.5359 0.526932 15.8727C0.190078 16.2096 0.000578888 16.6663 0 17.1427L0 37.028C0.000578888 37.5044 0.190078 37.9611 0.526932 38.2979C0.863786 38.6348 1.32049 38.8243 1.79688 38.8249H38.2031C38.6795 38.8244 39.1363 38.6349 39.4732 38.298C39.81 37.9611 39.9995 37.5044 40 37.028V17.1427C39.9995 16.6663 39.81 16.2095 39.4732 15.8726C39.1363 15.5358 38.6795 15.3463 38.2031 15.3458ZM27.7431 2.36172C29.2561 2.3614 30.741 2.76958 32.0412 3.54317C33.3414 4.31677 34.4087 5.42706 35.1302 6.75686C35.8518 8.08665 36.2009 9.58659 36.1408 11.0983C36.0806 12.6101 35.6134 14.0775 34.7884 15.3458H33.0219C34.1333 14.0794 34.7444 12.451 34.7406 10.7661C34.7409 9.15872 34.1877 7.60027 33.1741 6.35277C32.1605 5.10526 30.7483 4.24479 29.1749 3.91601C27.6015 3.58724 25.9629 3.81022 24.5346 4.54746C23.1062 5.2847 21.9753 6.49124 21.3319 7.96422C21.1531 7.38723 20.9193 6.82873 20.6338 6.29641C21.3921 5.09544 22.4412 4.10522 23.6839 3.41743C24.9266 2.72965 26.3228 2.36654 27.7431 2.36172ZM21.3319 13.5695C21.6168 14.2158 21.9987 14.8148 22.4644 15.3458H20.5703C20.8844 14.7814 21.1396 14.1862 21.3319 13.5695ZM21.8391 10.7652C21.8368 9.76716 22.0876 8.78488 22.5679 7.91008C23.0483 7.03528 23.7425 6.29651 24.5858 5.76279C25.4291 5.22907 26.394 4.91782 27.3902 4.85811C28.3864 4.7984 29.3815 4.99218 30.2825 5.42135C31.1835 5.85052 31.961 6.50108 32.5424 7.31224C33.1238 8.1234 33.4901 9.0687 33.6071 10.0598C33.7241 11.0509 33.5879 12.0555 33.2114 12.9798C32.8348 13.904 32.2301 14.7177 31.4538 15.3448H24.0312C23.3457 14.7948 22.7927 14.0976 22.4132 13.3048C22.0338 12.5121 21.8375 11.6441 21.8391 10.7652ZM3.85281 10.7652C3.85265 9.45723 4.15776 8.16731 4.74387 6.99806C5.32999 5.8288 6.18092 4.81249 7.22896 4.02999C8.27699 3.24749 9.4932 2.7204 10.7808 2.49068C12.0684 2.26096 13.3918 2.33494 14.6458 2.70673C15.8998 3.07853 17.0497 3.73787 18.004 4.6323C18.9583 5.52673 19.6906 6.63155 20.1428 7.85884C20.5949 9.08614 20.7544 10.402 20.6085 11.7018C20.4625 13.0016 20.0152 14.2493 19.3022 15.3458H17.5356C18.6469 14.0794 19.2581 12.451 19.2544 10.7661C19.2605 9.84318 19.0841 8.92815 18.7352 8.07371C18.3863 7.21926 17.8718 6.44227 17.2213 5.78747C16.5709 5.13268 15.7974 4.61301 14.9453 4.25839C14.0932 3.90377 13.1793 3.72121 12.2564 3.72121C11.3335 3.72121 10.4196 3.90377 9.56754 4.25839C8.71545 4.61301 7.94191 5.13268 7.29148 5.78747C6.64104 6.44227 6.12656 7.21926 5.77764 8.07371C5.42872 8.92815 5.25227 9.84318 5.25844 10.7661C5.25471 12.451 5.86584 14.0794 6.97719 15.3458H5.21156C4.32208 13.9839 3.84982 12.3918 3.85281 10.7652ZM6.35281 10.7652C6.3509 9.76731 6.60192 8.78525 7.08241 7.91071C7.56291 7.03616 8.25721 6.29766 9.10048 5.76417C9.94374 5.23068 10.9085 4.91961 11.9045 4.86002C12.9006 4.80042 13.8955 4.99424 14.7964 5.42337C15.6973 5.8525 16.4747 6.50295 17.056 7.31396C17.6374 8.12498 18.0037 9.0701 18.1208 10.0611C18.2379 11.052 18.1019 12.0565 17.7255 12.9806C17.3492 13.9048 16.7448 14.7185 15.9688 15.3458H8.54625C7.8603 14.7958 7.30695 14.0985 6.92724 13.3056C6.54752 12.5126 6.3512 11.6443 6.35281 10.7652ZM38.9062 37.028C38.906 37.2144 38.8318 37.3931 38.7 37.5249C38.5682 37.6567 38.3895 37.7309 38.2031 37.7311H1.79688C1.61047 37.7309 1.43177 37.6567 1.29996 37.5249C1.16816 37.3931 1.094 37.2144 1.09375 37.028V17.1427C1.094 16.9563 1.16816 16.7776 1.29996 16.6458C1.43177 16.5139 1.61047 16.4398 1.79688 16.4395H38.2031C38.3895 16.4398 38.5682 16.5139 38.7 16.6458C38.8318 16.7776 38.906 16.9563 38.9062 17.1427V37.028Z" fill="white"/>
<path d="M36.9531 20.6805C36.3471 20.6798 35.766 20.4388 35.3375 20.0102C34.9089 19.5816 34.6678 19.0006 34.6672 18.3945C34.6672 18.2495 34.6096 18.1104 34.507 18.0078C34.4045 17.9053 34.2654 17.8477 34.1203 17.8477H5.87969C5.73465 17.8477 5.59555 17.9053 5.49299 18.0078C5.39043 18.1104 5.33281 18.2495 5.33281 18.3945C5.33215 19.0006 5.0911 19.5816 4.66255 20.0102C4.23399 20.4388 3.65294 20.6798 3.04688 20.6805C2.90186 20.6806 2.76281 20.7382 2.66027 20.8407C2.55773 20.9433 2.50008 21.0823 2.5 21.2273V32.9461C2.5 33.0911 2.55762 33.2302 2.66018 33.3328C2.76273 33.4354 2.90183 33.493 3.04688 33.493C3.65297 33.4937 4.23402 33.7348 4.66256 34.1634C5.09111 34.592 5.33215 35.1731 5.33281 35.7792C5.33281 35.9243 5.39043 36.0634 5.49299 36.1659C5.59555 36.2685 5.73465 36.3261 5.87969 36.3261H34.1203C34.2654 36.3261 34.4045 36.2685 34.507 36.1659C34.6096 36.0634 34.6672 35.9243 34.6672 35.7792C34.6678 35.1731 34.9089 34.592 35.3374 34.1634C35.766 33.7348 36.347 33.4937 36.9531 33.493C37.025 33.493 37.0961 33.4789 37.1625 33.4514C37.2288 33.424 37.2891 33.3837 37.3399 33.3329C37.3907 33.2821 37.431 33.2218 37.4585 33.1554C37.4859 33.0891 37.5 33.0179 37.5 32.9461V21.2273C37.5 21.0823 37.4424 20.9432 37.3398 20.8406C37.2373 20.7381 37.0982 20.6805 36.9531 20.6805ZM6.38219 35.233C6.2666 34.5353 5.93558 33.8912 5.43552 33.3911C4.93547 32.891 4.29145 32.5599 3.59375 32.4442V21.7302C4.29143 21.6144 4.93542 21.2833 5.43547 20.7832C5.93552 20.2831 6.26656 19.6391 6.38219 18.9414H15.6444C14.169 19.7296 12.9353 20.9037 12.0752 22.3384C11.2151 23.7731 10.7608 25.4144 10.7608 27.0872C10.7608 28.7599 11.2151 30.4013 12.0752 31.836C12.9353 33.2706 14.169 34.4448 15.6444 35.233H6.38219ZM20 18.9414C21.6111 18.9413 23.1861 19.419 24.5258 20.3141C25.8654 21.2092 26.9095 22.4814 27.5261 23.9699C28.1427 25.4584 28.304 27.0963 27.9897 28.6765C27.6754 30.2566 26.8996 31.7081 25.7604 32.8474C24.6211 33.9866 23.1696 34.7625 21.5894 35.0768C20.0092 35.3911 18.3713 35.2297 16.8829 34.6131C15.3944 33.9966 14.1221 32.9524 13.2271 31.6128C12.332 30.2731 11.8543 28.6982 11.8544 27.087C11.8572 24.9275 12.7163 22.8573 14.2433 21.3303C15.7703 19.8033 17.8405 18.9442 20 18.9414ZM36.4062 32.4442C35.7084 32.5597 35.0643 32.8907 34.5641 33.3909C34.064 33.891 33.733 34.5352 33.6175 35.233H24.3556C25.831 34.4448 27.0647 33.2706 27.9248 31.836C28.7849 30.4013 29.2392 28.7599 29.2392 27.0872C29.2392 25.4144 28.7849 23.7731 27.9248 22.3384C27.0647 20.9037 25.831 19.7296 24.3556 18.9414H33.6175C33.7331 19.6392 34.0641 20.2833 34.5642 20.7834C35.0644 21.2835 35.7085 21.6146 36.4062 21.7302V32.4442Z" fill="white"/>
<path d="M21.8065 29.4683H16.9434C16.7983 29.4683 16.6592 29.5259 16.5567 29.6285C16.4541 29.731 16.3965 29.8701 16.3965 30.0152C16.3965 30.1602 16.4541 30.2993 16.5567 30.4019C16.6592 30.5044 16.7983 30.562 16.9434 30.562H18.3155V31.9173C18.3155 32.0624 18.3732 32.2015 18.4757 32.304C18.5783 32.4066 18.7174 32.4642 18.8624 32.4642C19.0075 32.4642 19.1466 32.4066 19.2491 32.304C19.3517 32.2015 19.4093 32.0624 19.4093 31.9173V30.562H20.5905V31.9173C20.5905 32.0624 20.6482 32.2015 20.7507 32.304C20.8533 32.4066 20.9924 32.4642 21.1374 32.4642C21.2825 32.4642 21.4216 32.4066 21.5241 32.304C21.6267 32.2015 21.6843 32.0624 21.6843 31.9173V30.562H21.8065C22.2829 30.5615 22.7396 30.3721 23.0765 30.0352C23.4134 29.6983 23.6029 29.2416 23.6034 28.7652V27.0855C23.6034 26.9404 23.5457 26.8013 23.4432 26.6988C23.3406 26.5962 23.2015 26.5386 23.0565 26.5386H17.4902V25.4058C17.4905 25.2194 17.5646 25.0407 17.6964 24.9089C17.8283 24.7771 18.007 24.7029 18.1934 24.7027H23.0565C23.2015 24.7027 23.3406 24.645 23.4432 24.5425C23.5457 24.4399 23.6034 24.3008 23.6034 24.1558C23.6034 24.0107 23.5457 23.8716 23.4432 23.7691C23.3406 23.6665 23.2015 23.6089 23.0565 23.6089H21.6843V22.2539C21.6843 22.1089 21.6267 21.9698 21.5241 21.8672C21.4216 21.7646 21.2825 21.707 21.1374 21.707C20.9924 21.707 20.8533 21.7646 20.7507 21.8672C20.6482 21.9698 20.5905 22.1089 20.5905 22.2539V23.6092H19.4093V22.2539C19.4093 22.1089 19.3517 21.9698 19.2491 21.8672C19.1466 21.7646 19.0075 21.707 18.8624 21.707C18.7174 21.707 18.5783 21.7646 18.4757 21.8672C18.3732 21.9698 18.3155 22.1089 18.3155 22.2539V23.6092H18.1934C17.717 23.6097 17.2602 23.7992 16.9233 24.1361C16.5865 24.4729 16.397 24.9297 16.3965 25.4061V27.0858C16.3964 27.1576 16.4106 27.2287 16.438 27.2951C16.4655 27.3615 16.5058 27.4218 16.5566 27.4726C16.6074 27.5234 16.6677 27.5636 16.734 27.5911C16.8004 27.6186 16.8715 27.6327 16.9434 27.6327H22.5096V28.7655C22.5093 28.9518 22.4351 29.1304 22.3033 29.2622C22.1715 29.3939 21.9928 29.468 21.8065 29.4683Z" fill="white"/>
<path d="M14.0141 7.4224L12.2572 9.25646L10.5004 7.4224C10.4507 7.37055 10.3912 7.32899 10.3255 7.30011C10.2597 7.27122 10.1889 7.25557 10.1171 7.25405C10.0453 7.25252 9.9739 7.26516 9.90698 7.29123C9.84006 7.3173 9.77892 7.3563 9.72707 7.406C9.67522 7.45569 9.63367 7.51512 9.60478 7.58087C9.57589 7.64663 9.56024 7.71743 9.55872 7.78924C9.55719 7.86104 9.56983 7.93245 9.5959 7.99937C9.62197 8.06629 9.66097 8.12742 9.71067 8.17928L10.976 9.4999H10.265C10.12 9.4999 9.9809 9.55752 9.87834 9.66008C9.77578 9.76264 9.71817 9.90174 9.71817 10.0468C9.71817 10.1918 9.77578 10.3309 9.87834 10.4335C9.9809 10.536 10.12 10.5937 10.265 10.5937H11.7104V11.2974H10.265C10.12 11.2974 9.9809 11.355 9.87834 11.4576C9.77578 11.5601 9.71817 11.6992 9.71817 11.8443C9.71817 11.9893 9.77578 12.1284 9.87834 12.231C9.9809 12.3335 10.12 12.3912 10.265 12.3912H11.7104V13.3677C11.7104 13.5128 11.768 13.6519 11.8705 13.7544C11.9731 13.857 12.1122 13.9146 12.2572 13.9146C12.4023 13.9146 12.5414 13.857 12.6439 13.7544C12.7465 13.6519 12.8041 13.5128 12.8041 13.3677V12.3912H14.2504C14.3954 12.3912 14.5345 12.3335 14.6371 12.231C14.7396 12.1284 14.7972 11.9893 14.7972 11.8443C14.7972 11.6992 14.7396 11.5601 14.6371 11.4576C14.5345 11.355 14.3954 11.2974 14.2504 11.2974H12.8041V10.5943H14.2504C14.3954 10.5943 14.5345 10.5367 14.6371 10.4341C14.7396 10.3315 14.7972 10.1924 14.7972 10.0474C14.7972 9.90236 14.7396 9.76326 14.6371 9.6607C14.5345 9.55814 14.3954 9.50053 14.2504 9.50053H13.5385L14.8041 8.1799C14.9046 8.07514 14.9593 7.93477 14.9562 7.78966C14.9532 7.64455 14.8926 7.5066 14.7879 7.40615C14.6831 7.3057 14.5427 7.25098 14.3976 7.25403C14.2525 7.25707 14.1146 7.31764 14.0141 7.4224Z" fill="white"/>
<path d="M29.5004 7.42238L27.7439 9.25645L25.9867 7.42238C25.937 7.37053 25.8776 7.32898 25.8118 7.30009C25.746 7.2712 25.6752 7.25555 25.6034 7.25403C25.5316 7.25251 25.4602 7.26514 25.3933 7.29121C25.3264 7.31728 25.2653 7.35628 25.2134 7.40598C25.1616 7.45568 25.12 7.5151 25.0911 7.58086C25.0622 7.64661 25.0466 7.71741 25.045 7.78922C25.0435 7.86103 25.0562 7.93243 25.0822 7.99935C25.1083 8.06627 25.1473 8.12741 25.197 8.17926L26.4623 9.49988H25.7504C25.6054 9.49988 25.4663 9.5575 25.3637 9.66006C25.2612 9.76262 25.2036 9.90172 25.2036 10.0468C25.2036 10.1918 25.2612 10.3309 25.3637 10.4335C25.4663 10.536 25.6054 10.5936 25.7504 10.5936H27.1957V11.2974H25.7504C25.6054 11.2974 25.4663 11.355 25.3637 11.4576C25.2612 11.5601 25.2036 11.6992 25.2036 11.8443C25.2036 11.9893 25.2612 12.1284 25.3637 12.231C25.4663 12.3335 25.6054 12.3911 25.7504 12.3911H27.1957V13.3677C27.1957 13.5127 27.2534 13.6518 27.3559 13.7544C27.4585 13.857 27.5976 13.9146 27.7426 13.9146C27.8877 13.9146 28.0268 13.857 28.1293 13.7544C28.2319 13.6518 28.2895 13.5127 28.2895 13.3677V12.3911H29.7348C29.8798 12.3911 30.0189 12.3335 30.1215 12.231C30.2241 12.1284 30.2817 11.9893 30.2817 11.8443C30.2817 11.6992 30.2241 11.5601 30.1215 11.4576C30.0189 11.355 29.8798 11.2974 29.7348 11.2974H28.2904V10.5943H29.7357C29.8808 10.5943 30.0199 10.5366 30.1224 10.4341C30.225 10.3315 30.2826 10.1924 30.2826 10.0474C30.2826 9.90234 30.225 9.76324 30.1224 9.66069C30.0199 9.55813 29.8808 9.50051 29.7357 9.50051H29.0248L30.2901 8.17988C30.3399 8.12803 30.3789 8.06689 30.405 7.99995C30.4311 7.93301 30.4438 7.86159 30.4423 7.78975C30.4408 7.71792 30.4252 7.64708 30.3963 7.58129C30.3674 7.51549 30.3259 7.45603 30.274 7.40629C30.2222 7.35655 30.161 7.31751 30.0941 7.2914C30.0272 7.2653 29.9557 7.25263 29.8839 7.25412C29.8121 7.25562 29.7412 7.27124 29.6754 7.30012C29.6096 7.32899 29.5502 7.37053 29.5004 7.42238Z" fill="white"/>
</svg>
