<svg width="171" height="48" viewBox="0 0 171 48" fill="none" xmlns="http://www.w3.org/2000/svg">
<path fill-rule="evenodd" clip-rule="evenodd" d="M63.5316 21.8292L60.427 21.1556C58.8734 20.8188 58.0182 19.8606 58.0182 18.4565C58.0182 16.672 59.6025 15.3257 61.7039 15.3257C64.6118 15.3257 65.4703 17.4651 65.6648 18.1216C65.7265 18.3398 65.8783 18.5248 66.0823 18.6268C66.2815 18.7288 66.5044 18.744 66.7179 18.6695L68.3544 18.0922C68.5509 18.0224 68.7134 17.8803 68.8086 17.6948C68.9038 17.5093 68.9246 17.2945 68.8668 17.0941C68.4446 15.6094 66.8934 12.1561 61.6328 12.1561C57.7383 12.1561 54.451 15.135 54.451 18.6619C54.451 21.6931 56.44 23.932 59.7733 24.6578L62.7333 25.3029C64.515 25.6777 65.5794 26.764 65.5794 28.206C65.5794 30.0465 64.0662 31.1897 61.628 31.1897C58.7629 31.1897 57.3825 29.3113 57.0457 27.5514C57.0244 27.4379 56.9793 27.3303 56.9132 27.2356C56.8472 27.1409 56.7618 27.0613 56.6627 27.0021C56.5635 26.9429 56.453 26.9054 56.3383 26.8922C56.2236 26.8789 56.1074 26.8902 55.9974 26.9252L54.1996 27.4992C54.0106 27.5568 53.8495 27.682 53.7471 27.8509C53.6447 28.0198 53.6082 28.2206 53.6446 28.4147C54.2043 31.332 56.6013 34.4438 61.6612 34.4438C65.9371 34.4438 69.1618 31.6593 69.1618 27.9688C69.1618 24.8523 67.105 22.6133 63.5169 21.8211L63.5316 21.8292ZM81.8993 24.6673C81.9088 24.729 81.8803 24.7764 81.8613 24.7954C81.8456 24.8148 81.8258 24.8304 81.8032 24.8411C81.7806 24.8518 81.7559 24.8572 81.7309 24.857H75.1373C75.1111 24.857 75.0852 24.8511 75.0616 24.8396C75.038 24.828 75.0173 24.8113 75.0012 24.7906C74.9861 24.7733 74.9753 24.7527 74.9696 24.7305C74.9638 24.7083 74.9633 24.685 74.968 24.6625C75.2692 23.2879 76.448 21.9018 78.4023 21.9018C80.3221 21.9018 81.628 22.9311 81.896 24.6592L81.8993 24.6673ZM78.3767 18.8232C74.9044 18.8232 71.3135 21.7263 71.3135 26.5884C71.3135 28.9318 72.082 30.9336 73.5382 32.3709C74.8873 33.7038 76.7307 34.4391 78.7277 34.4391C81.702 34.4391 84.1117 32.8851 85.1743 30.2837C85.2597 30.0702 85.2549 29.8331 85.1629 29.6243C85.1175 29.5231 85.0518 29.4322 84.9697 29.3575C84.8877 29.2827 84.7912 29.2256 84.6862 29.1898L83.2346 28.687C83.0404 28.6203 82.8281 28.6293 82.6402 28.7122C82.4523 28.7951 82.3026 28.9459 82.2209 29.1343C81.5948 30.6096 80.4183 31.3543 78.7249 31.3543C76.6757 31.3543 75.115 29.9739 74.8446 27.9185C74.8412 27.8955 74.8431 27.8721 74.8501 27.8499C74.857 27.8277 74.869 27.8074 74.8849 27.7905C74.9039 27.7668 74.9466 27.7288 75.013 27.7288H84.6349C85.0666 27.7288 85.4271 27.392 85.4508 26.9622C85.4603 26.8247 85.4651 26.6729 85.4651 26.523C85.4651 21.7699 82.747 18.818 78.3734 18.818L78.3767 18.8232ZM94.7611 30.3596C92.4509 30.3596 91.0136 28.7563 91.0136 26.1757C91.0136 23.6332 92.4841 21.99 94.7611 21.99C96.9668 21.99 98.4487 23.6692 98.4487 26.1739C98.4487 28.6756 96.9659 30.3577 94.7606 30.3577L94.7611 30.3596ZM100.918 19.2596H99.1773C98.7267 19.2596 98.3591 19.6263 98.3591 20.0992C98.3589 20.1327 98.3489 20.1653 98.3304 20.1931C98.3118 20.221 98.2855 20.2427 98.2547 20.2557C98.2215 20.27 98.1551 20.289 98.0953 20.232C97.1988 19.4123 95.937 18.9963 94.3479 18.9963C90.4093 18.9963 87.5503 22.018 87.5503 26.1781C87.5503 30.3202 90.4093 33.3267 94.3479 33.3267C95.8042 33.3267 97.1229 32.8486 98.0621 31.9805C98.1238 31.9236 98.1902 31.9378 98.2234 31.952C98.2471 31.9615 98.3278 32.0042 98.3278 32.1086V32.7063C98.3278 35.5998 97.0612 36.9494 94.3479 36.9494C92.626 36.9494 91.2741 35.8821 90.9088 34.2323C90.8614 34.0188 90.7333 33.8385 90.5483 33.7233C90.3633 33.608 90.1403 33.5715 89.9269 33.6189L88.2173 34.0126C88.0073 34.0626 87.8254 34.193 87.7106 34.3757C87.5958 34.5585 87.5573 34.779 87.6035 34.9898C88.2154 37.9878 90.9268 40.0038 94.3441 40.0038C96.8914 40.0038 98.8315 39.2282 100.112 37.6984C101.17 36.4338 101.73 34.6782 101.73 32.6213V20.0902C101.73 19.6396 101.365 19.2743 100.914 19.2743L100.918 19.2596ZM121.615 18.8497C119.689 18.8497 118.122 19.5765 117.083 20.9559C117.065 20.9814 117.041 21.002 117.013 21.0156C116.985 21.0293 116.955 21.0355 116.924 21.0337C116.901 21.034 116.878 21.0282 116.858 21.017C116.838 21.0057 116.821 20.9894 116.81 20.9697C115.938 19.6225 114.434 18.8493 112.683 18.8493C111.29 18.8493 109.951 19.3388 109.007 20.1941C108.985 20.2179 108.955 20.2339 108.923 20.2398C108.89 20.2458 108.857 20.2414 108.827 20.2273C108.798 20.2153 108.773 20.1947 108.756 20.1682C108.739 20.1418 108.731 20.1107 108.732 20.0793C108.732 19.6286 108.365 19.2634 107.915 19.2634H106.261C105.81 19.2634 105.445 19.6286 105.445 20.0793V33.1858C105.445 33.6365 105.812 34.0027 106.263 34.0027H108.004C108.454 34.0027 108.82 33.6346 108.82 33.1839V25.1943C108.82 23.2527 110.006 21.9478 111.775 21.9478C114.09 21.9478 114.436 23.7632 114.436 24.8447V33.1982C114.436 33.6488 114.801 34.0141 115.252 34.0141H117.023C117.473 34.0141 117.839 33.6469 117.839 33.1963V25.1658C117.839 23.2703 119.044 21.9468 120.765 21.9468C123.082 21.9468 123.427 23.7636 123.427 24.8452V33.1986C123.427 33.6493 123.792 34.0145 124.242 34.0145H125.983C126.434 34.0145 126.799 33.6474 126.799 33.1967V24.5492C126.799 20.6215 124.195 18.8649 121.615 18.8649V18.8497ZM133.383 24.8684C133.357 24.8683 133.331 24.8624 133.308 24.8511C133.284 24.8398 133.264 24.8233 133.247 24.803C133.233 24.7857 133.223 24.7653 133.217 24.7435C133.212 24.7216 133.211 24.6988 133.216 24.6768C133.518 23.3011 134.696 21.916 136.652 21.916C138.571 21.916 139.878 22.9454 140.145 24.672C140.155 24.7337 140.125 24.7811 140.107 24.8001C140.091 24.8178 140.07 24.8319 140.048 24.8417C140.026 24.8514 140.001 24.8567 139.977 24.857H133.383V24.8684ZM136.623 18.8346C133.151 18.8346 129.56 21.7395 129.56 26.5998C129.56 28.946 130.328 30.9464 131.783 32.3851C133.13 33.7181 134.971 34.4486 136.972 34.4486C139.942 34.4486 142.352 32.8927 143.419 30.2884C143.504 30.075 143.5 29.8378 143.405 29.6291C143.31 29.4204 143.139 29.2686 142.926 29.1927L141.474 28.6908C141.071 28.5518 140.625 28.7477 140.46 29.1376C139.834 30.6091 138.657 31.3576 136.964 31.3576C134.915 31.3576 133.354 29.9744 133.084 27.9185C133.08 27.8953 133.081 27.8715 133.088 27.8489C133.095 27.8263 133.106 27.8054 133.122 27.7876C133.141 27.7639 133.183 27.7283 133.25 27.7283H142.874C143.306 27.7283 143.665 27.3915 143.69 26.9613C143.698 26.8237 143.704 26.6719 143.704 26.5201C143.704 21.7671 140.986 18.8118 136.613 18.8118L136.623 18.8346ZM154.065 18.8645C152.593 18.8645 151.301 19.3663 150.332 20.316C150.31 20.3384 150.282 20.3535 150.251 20.3594C150.22 20.3654 150.188 20.3618 150.159 20.3492C150.129 20.3362 150.103 20.3147 150.086 20.2873C150.068 20.26 150.059 20.2281 150.059 20.1955V20.0911C150.059 19.6405 149.692 19.2752 149.241 19.2752H147.534C147.083 19.2752 146.716 19.6405 146.716 20.0911V33.1953C146.716 33.646 147.081 34.0126 147.532 34.0126H149.301C149.752 34.0126 150.119 33.645 150.119 33.1944V25.5444C150.119 23.8329 150.895 22.0038 153.074 22.0038C155.034 22.0038 156.028 23.0867 156.028 25.2223V33.1915C156.028 33.6422 156.393 34.0074 156.844 34.0074H158.613C159.064 34.0074 159.43 33.6374 159.43 33.1868V24.7531C159.43 21.1196 157.372 18.8616 154.065 18.8616L154.065 18.8645ZM167.674 22.4136H169.738C170.188 22.4136 170.554 22.046 170.554 21.5958V20.0902C170.554 19.6396 170.188 19.2743 169.738 19.2743H167.674C167.653 19.2743 167.631 19.27 167.611 19.2617C167.591 19.2533 167.572 19.2411 167.557 19.2257C167.541 19.2103 167.529 19.192 167.521 19.1718C167.513 19.1517 167.508 19.1301 167.508 19.1083V15.6388C167.508 15.1882 167.14 14.822 166.69 14.822H165.153C164.702 14.822 164.337 15.1882 164.337 15.6388V17.4319C164.337 18.2715 164.016 19.2738 162.493 19.2738H162.231C161.78 19.2738 161.415 19.6391 161.415 20.0897V21.5934C161.415 22.0441 161.781 22.4093 162.231 22.4093H163.943C164.035 22.4093 164.109 22.4805 164.109 22.5754V29.8188C164.109 32.4942 165.738 34.1545 168.359 34.1545C169.09 34.1545 169.658 34.0501 169.932 33.9884C170.302 33.9031 170.562 33.5758 170.562 33.1915V31.7974C170.562 31.6827 170.537 31.5693 170.491 31.4646C170.444 31.3599 170.375 31.2662 170.29 31.1896C170.205 31.113 170.104 31.0551 169.995 31.0199C169.886 30.9846 169.771 30.9726 169.657 30.9848C169.472 31.0038 169.292 31.0147 169.152 31.0147C167.961 31.0147 167.515 30.5783 167.515 29.4066V22.5758C167.515 22.4848 167.591 22.4108 167.681 22.4108" fill="#43AF79"/>
<path fill-rule="evenodd" clip-rule="evenodd" d="M19.757 41.0001C17.9051 41.0001 16.0759 40.7249 14.3208 40.1809C13.8402 40.0319 13.4384 39.6982 13.2038 39.253C12.9693 38.8079 12.9211 38.2878 13.0699 37.8072C13.3802 36.8015 14.4456 36.2418 15.4441 36.5549C16.8349 36.9865 18.2855 37.2047 19.757 37.2047C26.1954 37.2047 31.7858 33.0731 33.6685 26.9206C33.7414 26.6824 33.8605 26.4609 34.019 26.2687C34.1776 26.0766 34.3725 25.9176 34.5926 25.8008C34.8126 25.6841 35.0536 25.6118 35.3016 25.5883C35.5496 25.5647 35.7998 25.5903 36.0379 25.6636C37.0398 25.9672 37.6033 27.0297 37.2969 28.0306C34.9232 35.7869 27.8742 41.0001 19.757 41.0001Z" fill="#43AF79"/>
<path fill-rule="evenodd" clip-rule="evenodd" d="M4.03197 19.7374C3.73521 19.7375 3.44257 19.6679 3.17758 19.5343C2.91258 19.4007 2.68261 19.2068 2.50615 18.9682C2.32969 18.7296 2.21166 18.4529 2.16154 18.1604C2.11141 17.8679 2.1306 17.5678 2.21755 17.284C4.59172 9.52826 11.6407 4.31885 19.757 4.31885C21.6103 4.31885 23.4394 4.59398 25.1931 5.13854C25.4312 5.21228 25.6523 5.33219 25.844 5.49142C26.0357 5.65064 26.1942 5.84607 26.3103 6.06653C26.4265 6.287 26.4981 6.52819 26.521 6.77632C26.5439 7.02446 26.5178 7.27468 26.444 7.51271C26.3705 7.75087 26.2507 7.9722 26.0915 8.164C25.9323 8.3558 25.7369 8.51432 25.5163 8.63047C25.2958 8.74662 25.0545 8.81813 24.8063 8.84089C24.5581 8.86365 24.3078 8.83722 24.0698 8.76312C22.68 8.33619 21.2284 8.11799 19.757 8.11799C13.3199 8.11799 7.72865 12.2497 5.84592 18.4021C5.72693 18.7904 5.48659 19.1302 5.16019 19.3719C4.8338 19.6135 4.43854 19.7441 4.03245 19.7445" fill="#43AF79"/>
<path fill-rule="evenodd" clip-rule="evenodd" d="M24.6316 29.3767H1.89744C0.849102 29.3767 0 28.5276 0 27.4793C0 26.4309 0.849102 25.5818 1.89744 25.5818H24.6316C25.6799 25.5818 26.529 26.4309 26.529 27.4793C26.529 28.5276 25.6799 29.3767 24.6316 29.3767Z" fill="#93C8A2"/>
<path fill-rule="evenodd" clip-rule="evenodd" d="M37.6167 19.7367H14.8835C13.8352 19.7367 12.9861 18.8876 12.9861 17.8393C12.9861 16.7909 13.8352 15.9418 14.8835 15.9418H37.6167C38.665 15.9418 39.5141 16.7909 39.5141 17.8393C39.5141 18.8876 38.665 19.7367 37.6167 19.7367Z" fill="#93C8A2"/>
<path fill-rule="evenodd" clip-rule="evenodd" d="M32.9167 10.6086C32.9167 11.1118 32.7168 11.5945 32.361 11.9503C32.0051 12.3061 31.5225 12.5061 31.0193 12.5061C30.5161 12.5061 30.0334 12.3061 29.6776 11.9503C29.3218 11.5945 29.1218 11.1118 29.1218 10.6086C29.1218 10.1054 29.3218 9.62277 29.6776 9.26693C30.0334 8.91109 30.5161 8.71118 31.0193 8.71118C31.5225 8.71118 32.0051 8.91109 32.361 9.26693C32.7168 9.62277 32.9167 10.1054 32.9167 10.6086ZM10.3918 34.7127C10.3918 35.2159 10.1919 35.6985 9.83604 36.0544C9.4802 36.4102 8.99758 36.6101 8.49435 36.6101C7.99111 36.6101 7.50849 36.4102 7.15266 36.0544C6.79682 35.6985 6.59691 35.2159 6.59691 34.7127C6.59691 34.2095 6.79682 33.7268 7.15266 33.371C7.50849 33.0152 7.99111 32.8153 8.49435 32.8153C8.99758 32.8153 9.4802 33.0152 9.83604 33.371C10.1919 33.7268 10.3918 34.2095 10.3918 34.7127Z" fill="#93C8A2"/>
</svg>
