<svg width="20" height="20" viewBox="0 0 20 20" fill="none" xmlns="http://www.w3.org/2000/svg">
<path d="M15.2369 5.77947V12.8505C15.2369 13.1157 15.1264 13.3588 14.9497 13.5355C14.7508 13.7344 14.5077 13.8449 14.2426 13.8449C13.6901 13.867 13.2261 13.403 13.2482 12.8505L13.2261 8.18805L6.46438 14.9498C6.06663 15.3475 5.44791 15.3475 5.05016 14.9498C4.67451 14.5741 4.65242 13.9333 5.05016 13.5355L11.8119 6.77384H7.17149C6.61906 6.79594 6.15502 6.3319 6.17712 5.77947C6.15502 5.22704 6.61906 4.763 7.17149 4.7851H14.2426C14.795 4.763 15.259 5.22704 15.2369 5.77947Z" fill="#034833"/>
</svg>
