<svg width="16" height="15" viewBox="0 0 16 15" fill="none" xmlns="http://www.w3.org/2000/svg">
<path d="M14.9728 1.80469L13.2228 13.1523C13.1954 13.4258 13.0314 13.6719 12.7853 13.8086C12.6486 13.8633 12.5118 13.918 12.3478 13.918C12.2384 13.918 12.129 13.8906 12.0197 13.8359L8.68372 12.4414L7.28918 14.5195C7.17981 14.7109 6.9884 14.793 6.797 14.793C6.49622 14.793 6.25012 14.5469 6.25012 14.2461V11.6211C6.25012 11.4023 6.30481 11.2109 6.41418 11.0742L12.3751 3.41797L4.33606 10.6641L1.51965 9.48828C1.21887 9.35156 1.00012 9.07812 1.00012 8.72266C0.972778 8.33984 1.13684 8.06641 1.43762 7.90234L13.6876 0.929688C13.9611 0.765625 14.3439 0.765625 14.6173 0.957031C14.8907 1.14844 15.0275 1.47656 14.9728 1.80469Z" fill="white"/>
</svg>
