<svg width="80" height="81" viewBox="0 0 80 81" fill="none" xmlns="http://www.w3.org/2000/svg">
<circle cx="40" cy="40.0469" r="40" fill="#83CD20"/>
<path d="M58.2031 35.3458H56.0562C56.8555 33.9007 57.2636 32.272 57.2403 30.6208C57.2171 28.9696 56.7632 27.3531 55.9235 25.9311C55.0839 24.5091 53.8876 23.331 52.453 22.5131C51.0184 21.6953 49.3951 21.2661 47.7437 21.268C46.2274 21.2728 44.7339 21.6389 43.3873 22.336C42.0406 23.0331 40.8794 24.0411 40 25.2764C38.5991 23.2956 36.4929 21.9265 34.1139 21.4503C31.735 20.9741 29.2641 21.427 27.2087 22.716C25.1533 24.0049 23.6695 26.0321 23.0623 28.381C22.455 30.7299 22.7703 33.2221 23.9434 35.3458H21.7969C21.3205 35.3464 20.8638 35.5359 20.5269 35.8727C20.1901 36.2096 20.0006 36.6663 20 37.1427V57.028C20.0006 57.5044 20.1901 57.9611 20.5269 58.2979C20.8638 58.6348 21.3205 58.8243 21.7969 58.8249H58.2031C58.6795 58.8244 59.1363 58.6349 59.4732 58.298C59.81 57.9611 59.9995 57.5044 60 57.028V37.1427C59.9995 36.6663 59.81 36.2095 59.4732 35.8726C59.1363 35.5358 58.6795 35.3463 58.2031 35.3458ZM47.7431 22.3617C49.2561 22.3614 50.741 22.7696 52.0412 23.5432C53.3414 24.3168 54.4087 25.4271 55.1302 26.7569C55.8518 28.0866 56.2009 29.5866 56.1408 31.0983C56.0806 32.6101 55.6134 34.0775 54.7884 35.3458H53.0219C54.1333 34.0794 54.7444 32.451 54.7406 30.7661C54.7409 29.1587 54.1877 27.6003 53.1741 26.3528C52.1605 25.1053 50.7483 24.2448 49.1749 23.916C47.6015 23.5872 45.9629 23.8102 44.5346 24.5475C43.1062 25.2847 41.9753 26.4912 41.3319 27.9642C41.1531 27.3872 40.9193 26.8287 40.6338 26.2964C41.3921 25.0954 42.4412 24.1052 43.6839 23.4174C44.9266 22.7296 46.3228 22.3665 47.7431 22.3617ZM41.3319 33.5695C41.6168 34.2158 41.9987 34.8148 42.4644 35.3458H40.5703C40.8844 34.7814 41.1396 34.1862 41.3319 33.5695ZM41.8391 30.7652C41.8368 29.7672 42.0876 28.7849 42.5679 27.9101C43.0483 27.0353 43.7425 26.2965 44.5858 25.7628C45.4291 25.2291 46.394 24.9178 47.3902 24.8581C48.3864 24.7984 49.3815 24.9922 50.2825 25.4214C51.1835 25.8505 51.961 26.5011 52.5424 27.3122C53.1238 28.1234 53.4901 29.0687 53.6071 30.0598C53.7241 31.0509 53.5879 32.0555 53.2114 32.9798C52.8348 33.904 52.2301 34.7177 51.4538 35.3448H44.0312C43.3457 34.7948 42.7927 34.0976 42.4132 33.3048C42.0338 32.5121 41.8375 31.6441 41.8391 30.7652ZM23.8528 30.7652C23.8526 29.4572 24.1578 28.1673 24.7439 26.9981C25.33 25.8288 26.1809 24.8125 27.229 24.03C28.277 23.2475 29.4932 22.7204 30.7808 22.4907C32.0684 22.261 33.3918 22.3349 34.6458 22.7067C35.8998 23.0785 37.0497 23.7379 38.004 24.6323C38.9583 25.5267 39.6906 26.6316 40.1428 27.8588C40.5949 29.0861 40.7544 30.402 40.6085 31.7018C40.4625 33.0016 40.0152 34.2493 39.3022 35.3458H37.5356C38.6469 34.0794 39.2581 32.451 39.2544 30.7661C39.2605 29.8432 39.0841 28.9282 38.7352 28.0737C38.3863 27.2193 37.8718 26.4423 37.2213 25.7875C36.5709 25.1327 35.7974 24.613 34.9453 24.2584C34.0932 23.9038 33.1793 23.7212 32.2564 23.7212C31.3335 23.7212 30.4196 23.9038 29.5675 24.2584C28.7154 24.613 27.9419 25.1327 27.2915 25.7875C26.641 26.4423 26.1266 27.2193 25.7776 28.0737C25.4287 28.9282 25.2523 29.8432 25.2584 30.7661C25.2547 32.451 25.8658 34.0794 26.9772 35.3458H25.2116C24.3221 33.9839 23.8498 32.3918 23.8528 30.7652ZM26.3528 30.7652C26.3509 29.7673 26.6019 28.7853 27.0824 27.9107C27.5629 27.0362 28.2572 26.2977 29.1005 25.7642C29.9437 25.2307 30.9085 24.9196 31.9045 24.86C32.9006 24.8004 33.8955 24.9942 34.7964 25.4234C35.6973 25.8525 36.4747 26.5029 37.056 27.314C37.6374 28.125 38.0037 29.0701 38.1208 30.0611C38.2379 31.052 38.1019 32.0565 37.7255 32.9806C37.3492 33.9048 36.7448 34.7185 35.9688 35.3458H28.5462C27.8603 34.7958 27.3069 34.0985 26.9272 33.3056C26.5475 32.5126 26.3512 31.6443 26.3528 30.7652ZM58.9062 57.028C58.906 57.2144 58.8318 57.3931 58.7 57.5249C58.5682 57.6567 58.3895 57.7309 58.2031 57.7311H21.7969C21.6105 57.7309 21.4318 57.6567 21.3 57.5249C21.1682 57.3931 21.094 57.2144 21.0938 57.028V37.1427C21.094 36.9563 21.1682 36.7776 21.3 36.6458C21.4318 36.5139 21.6105 36.4398 21.7969 36.4395H58.2031C58.3895 36.4398 58.5682 36.5139 58.7 36.6458C58.8318 36.7776 58.906 36.9563 58.9062 37.1427V57.028Z" fill="white"/>
<path d="M56.9531 40.6805C56.3471 40.6798 55.766 40.4388 55.3375 40.0102C54.9089 39.5816 54.6678 39.0006 54.6672 38.3945C54.6672 38.2495 54.6096 38.1104 54.507 38.0078C54.4045 37.9053 54.2654 37.8477 54.1203 37.8477H25.8797C25.7346 37.8477 25.5955 37.9053 25.493 38.0078C25.3904 38.1104 25.3328 38.2495 25.3328 38.3945C25.3322 39.0006 25.0911 39.5816 24.6625 40.0102C24.234 40.4388 23.6529 40.6798 23.0469 40.6805C22.9019 40.6806 22.7628 40.7382 22.6603 40.8407C22.5577 40.9433 22.5001 41.0823 22.5 41.2273V52.9461C22.5 53.0911 22.5576 53.2302 22.6602 53.3328C22.7627 53.4354 22.9018 53.493 23.0469 53.493C23.653 53.4937 24.234 53.7348 24.6626 54.1634C25.0911 54.592 25.3322 55.1731 25.3328 55.7792C25.3328 55.9243 25.3904 56.0634 25.493 56.1659C25.5955 56.2685 25.7346 56.3261 25.8797 56.3261H54.1203C54.2654 56.3261 54.4045 56.2685 54.507 56.1659C54.6096 56.0634 54.6672 55.9243 54.6672 55.7792C54.6678 55.1731 54.9089 54.592 55.3374 54.1634C55.766 53.7348 56.347 53.4937 56.9531 53.493C57.025 53.493 57.0961 53.4789 57.1625 53.4514C57.2288 53.424 57.2891 53.3837 57.3399 53.3329C57.3907 53.2821 57.431 53.2218 57.4585 53.1554C57.4859 53.0891 57.5 53.0179 57.5 52.9461V41.2273C57.5 41.0823 57.4424 40.9432 57.3398 40.8406C57.2373 40.7381 57.0982 40.6805 56.9531 40.6805ZM26.3822 55.233C26.2666 54.5353 25.9356 53.8912 25.4355 53.3911C24.9355 52.891 24.2915 52.5599 23.5938 52.4442V41.7302C24.2914 41.6144 24.9354 41.2833 25.4355 40.7832C25.9355 40.2831 26.2666 39.6391 26.3822 38.9414H35.6444C34.169 39.7296 32.9353 40.9037 32.0752 42.3384C31.2151 43.7731 30.7608 45.4144 30.7608 47.0872C30.7608 48.7599 31.2151 50.4013 32.0752 51.836C32.9353 53.2706 34.169 54.4448 35.6444 55.233H26.3822ZM40 38.9414C41.6111 38.9413 43.1861 39.419 44.5258 40.3141C45.8654 41.2092 46.9095 42.4814 47.5261 43.9699C48.1427 45.4584 48.304 47.0963 47.9897 48.6765C47.6754 50.2566 46.8996 51.7081 45.7604 52.8474C44.6211 53.9866 43.1696 54.7625 41.5894 55.0768C40.0092 55.3911 38.3713 55.2297 36.8829 54.6131C35.3944 53.9966 34.1221 52.9524 33.2271 51.6128C32.332 50.2731 31.8543 48.6982 31.8544 47.087C31.8572 44.9275 32.7163 42.8573 34.2433 41.3303C35.7703 39.8033 37.8405 38.9442 40 38.9414ZM56.4062 52.4442C55.7084 52.5597 55.0643 52.8907 54.5641 53.3909C54.064 53.891 53.733 54.5352 53.6175 55.233H44.3556C45.831 54.4448 47.0647 53.2706 47.9248 51.836C48.7849 50.4013 49.2392 48.7599 49.2392 47.0872C49.2392 45.4144 48.7849 43.7731 47.9248 42.3384C47.0647 40.9037 45.831 39.7296 44.3556 38.9414H53.6175C53.7331 39.6392 54.0641 40.2833 54.5642 40.7834C55.0644 41.2835 55.7085 41.6146 56.4062 41.7302V52.4442Z" fill="white"/>
<path d="M41.8065 49.4683H36.9434C36.7983 49.4683 36.6592 49.5259 36.5567 49.6285C36.4541 49.731 36.3965 49.8701 36.3965 50.0152C36.3965 50.1602 36.4541 50.2993 36.5567 50.4019C36.6592 50.5044 36.7983 50.562 36.9434 50.562H38.3155V51.9173C38.3155 52.0624 38.3732 52.2015 38.4757 52.304C38.5783 52.4066 38.7174 52.4642 38.8624 52.4642C39.0075 52.4642 39.1466 52.4066 39.2491 52.304C39.3517 52.2015 39.4093 52.0624 39.4093 51.9173V50.562H40.5905V51.9173C40.5905 52.0624 40.6482 52.2015 40.7507 52.304C40.8533 52.4066 40.9924 52.4642 41.1374 52.4642C41.2825 52.4642 41.4216 52.4066 41.5241 52.304C41.6267 52.2015 41.6843 52.0624 41.6843 51.9173V50.562H41.8065C42.2829 50.5615 42.7396 50.3721 43.0765 50.0352C43.4134 49.6983 43.6029 49.2416 43.6034 48.7652V47.0855C43.6034 46.9404 43.5457 46.8013 43.4432 46.6988C43.3406 46.5962 43.2015 46.5386 43.0565 46.5386H37.4902V45.4058C37.4905 45.2194 37.5646 45.0407 37.6964 44.9089C37.8283 44.7771 38.007 44.7029 38.1934 44.7027H43.0565C43.2015 44.7027 43.3406 44.645 43.4432 44.5425C43.5457 44.4399 43.6034 44.3008 43.6034 44.1558C43.6034 44.0107 43.5457 43.8716 43.4432 43.7691C43.3406 43.6665 43.2015 43.6089 43.0565 43.6089H41.6843V42.2539C41.6843 42.1089 41.6267 41.9698 41.5241 41.8672C41.4216 41.7646 41.2825 41.707 41.1374 41.707C40.9924 41.707 40.8533 41.7646 40.7507 41.8672C40.6482 41.9698 40.5905 42.1089 40.5905 42.2539V43.6092H39.4093V42.2539C39.4093 42.1089 39.3517 41.9698 39.2491 41.8672C39.1466 41.7646 39.0075 41.707 38.8624 41.707C38.7174 41.707 38.5783 41.7646 38.4757 41.8672C38.3732 41.9698 38.3155 42.1089 38.3155 42.2539V43.6092H38.1934C37.717 43.6097 37.2602 43.7992 36.9233 44.1361C36.5865 44.4729 36.397 44.9297 36.3965 45.4061V47.0858C36.3964 47.1576 36.4106 47.2287 36.438 47.2951C36.4655 47.3615 36.5058 47.4218 36.5566 47.4726C36.6074 47.5234 36.6677 47.5636 36.734 47.5911C36.8004 47.6186 36.8715 47.6327 36.9434 47.6327H42.5096V48.7655C42.5093 48.9518 42.4351 49.1304 42.3033 49.2622C42.1715 49.3939 41.9928 49.468 41.8065 49.4683Z" fill="white"/>
<path d="M34.0141 27.4224L32.2572 29.2565L30.5004 27.4224C30.4507 27.3705 30.3912 27.329 30.3255 27.3001C30.2597 27.2712 30.1889 27.2556 30.1171 27.254C30.0453 27.2525 29.9739 27.2652 29.907 27.2912C29.8401 27.3173 29.7789 27.3563 29.7271 27.406C29.6752 27.4557 29.6337 27.5151 29.6048 27.5809C29.5759 27.6466 29.5602 27.7174 29.5587 27.7892C29.5572 27.861 29.5698 27.9324 29.5959 27.9994C29.622 28.0663 29.661 28.1274 29.7107 28.1793L30.976 29.4999H30.265C30.12 29.4999 29.9809 29.5575 29.8783 29.6601C29.7758 29.7626 29.7182 29.9017 29.7182 30.0468C29.7182 30.1918 29.7758 30.3309 29.8783 30.4335C29.9809 30.536 30.12 30.5937 30.265 30.5937H31.7104V31.2974H30.265C30.12 31.2974 29.9809 31.355 29.8783 31.4576C29.7758 31.5601 29.7182 31.6992 29.7182 31.8443C29.7182 31.9893 29.7758 32.1284 29.8783 32.231C29.9809 32.3335 30.12 32.3912 30.265 32.3912H31.7104V33.3677C31.7104 33.5128 31.768 33.6519 31.8705 33.7544C31.9731 33.857 32.1122 33.9146 32.2572 33.9146C32.4023 33.9146 32.5414 33.857 32.6439 33.7544C32.7465 33.6519 32.8041 33.5128 32.8041 33.3677V32.3912H34.2504C34.3954 32.3912 34.5345 32.3335 34.6371 32.231C34.7396 32.1284 34.7972 31.9893 34.7972 31.8443C34.7972 31.6992 34.7396 31.5601 34.6371 31.4576C34.5345 31.355 34.3954 31.2974 34.2504 31.2974H32.8041V30.5943H34.2504C34.3954 30.5943 34.5345 30.5367 34.6371 30.4341C34.7396 30.3315 34.7972 30.1924 34.7972 30.0474C34.7972 29.9024 34.7396 29.7633 34.6371 29.6607C34.5345 29.5581 34.3954 29.5005 34.2504 29.5005H33.5385L34.8041 28.1799C34.9046 28.0751 34.9593 27.9348 34.9562 27.7897C34.9532 27.6446 34.8926 27.5066 34.7879 27.4062C34.6831 27.3057 34.5427 27.251 34.3976 27.254C34.2525 27.2571 34.1146 27.3176 34.0141 27.4224Z" fill="white"/>
<path d="M49.5004 27.4224L47.7439 29.2564L45.9867 27.4224C45.937 27.3705 45.8776 27.329 45.8118 27.3001C45.746 27.2712 45.6752 27.2556 45.6034 27.254C45.5316 27.2525 45.4602 27.2651 45.3933 27.2912C45.3264 27.3173 45.2653 27.3563 45.2134 27.406C45.1616 27.4557 45.12 27.5151 45.0911 27.5809C45.0622 27.6466 45.0466 27.7174 45.045 27.7892C45.0435 27.861 45.0562 27.9324 45.0822 27.9994C45.1083 28.0663 45.1473 28.1274 45.197 28.1793L46.4623 29.4999H45.7504C45.6054 29.4999 45.4663 29.5575 45.3637 29.6601C45.2612 29.7626 45.2036 29.9017 45.2036 30.0468C45.2036 30.1918 45.2612 30.3309 45.3637 30.4335C45.4663 30.536 45.6054 30.5936 45.7504 30.5936H47.1957V31.2974H45.7504C45.6054 31.2974 45.4663 31.355 45.3637 31.4576C45.2612 31.5601 45.2036 31.6992 45.2036 31.8443C45.2036 31.9893 45.2612 32.1284 45.3637 32.231C45.4663 32.3335 45.6054 32.3911 45.7504 32.3911H47.1957V33.3677C47.1957 33.5127 47.2534 33.6518 47.3559 33.7544C47.4585 33.857 47.5976 33.9146 47.7426 33.9146C47.8877 33.9146 48.0268 33.857 48.1293 33.7544C48.2319 33.6518 48.2895 33.5127 48.2895 33.3677V32.3911H49.7348C49.8798 32.3911 50.0189 32.3335 50.1215 32.231C50.2241 32.1284 50.2817 31.9893 50.2817 31.8443C50.2817 31.6992 50.2241 31.5601 50.1215 31.4576C50.0189 31.355 49.8798 31.2974 49.7348 31.2974H48.2904V30.5943H49.7357C49.8808 30.5943 50.0199 30.5366 50.1224 30.4341C50.225 30.3315 50.2826 30.1924 50.2826 30.0474C50.2826 29.9023 50.225 29.7632 50.1224 29.6607C50.0199 29.5581 49.8808 29.5005 49.7357 29.5005H49.0248L50.2901 28.1799C50.3399 28.128 50.3789 28.0669 50.405 28C50.4311 27.933 50.4438 27.8616 50.4423 27.7898C50.4408 27.7179 50.4252 27.6471 50.3963 27.5813C50.3674 27.5155 50.3259 27.456 50.274 27.4063C50.2222 27.3566 50.161 27.3175 50.0941 27.2914C50.0272 27.2653 49.9557 27.2526 49.8839 27.2541C49.8121 27.2556 49.7412 27.2712 49.6754 27.3001C49.6096 27.329 49.5502 27.3705 49.5004 27.4224Z" fill="white"/>
</svg>
