<svg width="157" height="41" viewBox="0 0 157 41" fill="none" xmlns="http://www.w3.org/2000/svg">
<g clip-path="url(#clip0_1_1308)">
<path d="M18.0945 36.3708C14.8636 36.3708 11.7052 35.4127 9.01885 33.6177C6.33247 31.8228 4.23868 29.2715 3.00227 26.2865C1.76587 23.3016 1.44237 20.017 2.07268 16.8482C2.703 13.6794 4.25882 10.7687 6.5434 8.48408C8.82798 6.19949 11.7387 4.64367 14.9075 4.01336C18.0763 3.38304 21.3609 3.70654 24.3458 4.94295C27.3308 6.17936 29.8821 8.27314 31.6771 10.9595C33.472 13.6459 34.4301 16.8042 34.4301 20.0351C34.4253 24.3661 32.7027 28.5184 29.6402 31.5809C26.5777 34.6434 22.4255 36.366 18.0945 36.3708Z" fill="#83CD20"/>
<path d="M18.094 35.3757C21.1279 35.3757 24.0938 34.476 26.6164 32.7904C29.1391 31.1048 31.1053 28.709 32.2663 25.906C33.4274 23.103 33.7312 20.0186 33.1393 17.0429C32.5474 14.0672 31.0864 11.3339 28.941 9.18856C26.7957 7.04322 24.0623 5.58222 21.0867 4.99032C18.111 4.39842 15.0266 4.7022 12.2236 5.86326C9.42055 7.02431 7.02476 8.99048 5.33917 11.5131C3.65358 14.0358 2.75391 17.0016 2.75391 20.0356C2.7587 24.1026 4.37642 28.0016 7.2522 30.8774C10.128 33.7532 14.027 35.3709 18.094 35.3757Z" fill="#034833"/>
<path d="M38.2725 14.2426C38.0139 14.1469 37.326 13.3349 34.2358 13.5935C33.2014 13.6814 30.2042 14.6279 26.4157 15.8097L17.5458 12.2307L14.8719 12.5152L22.0015 17.188C19.5318 17.9483 16.9329 18.7215 14.4271 19.3939L9.21119 15.7735L7.76562 16.1666L12.1825 21.8092L10.9076 24.4521L12.7566 24.2323L13.9823 22.4609C17.4592 22.3499 20.9201 21.9389 24.3263 21.2325L22.5937 28.2147L24.784 27.2734L28.1768 20.3972C38.8647 17.8423 39.7853 15.8873 39.987 15.3417C40.2042 14.721 38.5337 14.3409 38.2725 14.2426Z" fill="#83CD20"/>
<path d="M4.25098 31.0276L22.0063 27.7951L22.3425 25.8479L4.25098 31.0276Z" fill="#83CD20"/>
<path d="M2.22656 28.2968L22.692 24.2187L23.1058 22.1448L2.22656 28.2968Z" fill="#83CD20"/>
<path d="M10.548 23.6286L1.02637 25.5888L11.1453 22.4417L10.548 23.6286Z" fill="#83CD20"/>
<path d="M10.6082 20.8148L0.4375 23.0982L9.8841 19.9924L10.6082 20.8148Z" fill="#83CD20"/>
<path d="M9.04577 18.5205L0 20.61L8.3217 17.6956L9.04577 18.5205Z" fill="#83CD20"/>
</g>
<path d="M52.304 33.0391V9.19906H61.168C62.7893 9.19906 64.2187 9.49773 65.456 10.0951C66.7147 10.6711 67.696 11.5244 68.4 12.6551C69.104 13.7644 69.456 15.1191 69.456 16.7191C69.456 18.3617 69.0613 19.7591 68.272 20.9111C67.504 22.0631 66.4587 22.9164 65.136 23.4711L70.608 33.0391H65.68L59.824 22.5751L62.64 24.2391H56.656V33.0391H52.304ZM56.656 20.3991H61.232C62.0213 20.3991 62.704 20.2497 63.28 19.9511C63.856 19.6311 64.304 19.1937 64.624 18.6391C64.944 18.0844 65.104 17.4444 65.104 16.7191C65.104 15.9724 64.944 15.3324 64.624 14.7991C64.304 14.2444 63.856 13.8177 63.28 13.5191C62.704 13.1991 62.0213 13.0391 61.232 13.0391H56.656V20.3991ZM79.2115 33.4231C77.5048 33.4231 75.9475 33.0284 74.5395 32.2391C73.1528 31.4497 72.0435 30.3724 71.2115 29.0071C70.4008 27.6417 69.9955 26.0844 69.9955 24.3351C69.9955 22.5857 70.4008 21.0284 71.2115 19.6631C72.0435 18.2977 73.1528 17.2204 74.5395 16.4311C75.9262 15.6417 77.4835 15.2471 79.2115 15.2471C80.9182 15.2471 82.4648 15.6417 83.8515 16.4311C85.2382 17.2204 86.3368 18.2977 87.1475 19.6631C87.9795 21.0071 88.3955 22.5644 88.3955 24.3351C88.3955 26.0844 87.9795 27.6417 87.1475 29.0071C86.3155 30.3724 85.2062 31.4497 83.8195 32.2391C82.4328 33.0284 80.8968 33.4231 79.2115 33.4231ZM79.2115 29.5831C80.1502 29.5831 80.9715 29.3591 81.6755 28.9111C82.4008 28.4631 82.9662 27.8444 83.3715 27.0551C83.7982 26.2444 84.0115 25.3377 84.0115 24.3351C84.0115 23.3111 83.7982 22.4151 83.3715 21.6471C82.9662 20.8577 82.4008 20.2391 81.6755 19.7911C80.9715 19.3217 80.1502 19.0871 79.2115 19.0871C78.2515 19.0871 77.4088 19.3217 76.6835 19.7911C75.9582 20.2391 75.3822 20.8577 74.9555 21.6471C74.5502 22.4151 74.3475 23.3111 74.3475 24.3351C74.3475 25.3377 74.5502 26.2444 74.9555 27.0551C75.3822 27.8444 75.9582 28.4631 76.6835 28.9111C77.4088 29.3591 78.2515 29.5831 79.2115 29.5831ZM96.3425 33.4231C94.9985 33.4231 93.8252 33.1244 92.8225 32.5271C91.8412 31.9297 91.0838 31.0977 90.5505 30.0311C90.0385 28.9644 89.7825 27.7164 89.7825 26.2871V15.6311H93.9745V25.9351C93.9745 26.6604 94.1132 27.3004 94.3905 27.8551C94.6892 28.3884 95.1052 28.8151 95.6385 29.1351C96.1932 29.4337 96.8118 29.5831 97.4945 29.5831C98.1772 29.5831 98.7852 29.4337 99.3185 29.1351C99.8518 28.8151 100.268 28.3777 100.566 27.8231C100.865 27.2684 101.014 26.6071 101.014 25.8391V15.6311H105.206V33.0391H101.238V29.6151L101.59 30.2231C101.185 31.2897 100.513 32.0897 99.5745 32.6231C98.6572 33.1564 97.5798 33.4231 96.3425 33.4231ZM115.599 33.2311C113.637 33.2311 112.111 32.6977 111.023 31.6311C109.957 30.5431 109.423 29.0177 109.423 27.0551V19.3751H106.415V15.6311H106.735C107.589 15.6311 108.25 15.4071 108.719 14.9591C109.189 14.5111 109.423 13.8604 109.423 13.0071V11.6631H113.615V15.6311H117.615V19.3751H113.615V26.8311C113.615 27.4071 113.711 27.8977 113.903 28.3031C114.117 28.7084 114.437 29.0177 114.863 29.2311C115.311 29.4444 115.877 29.5511 116.559 29.5511C116.709 29.5511 116.879 29.5404 117.071 29.5191C117.285 29.4977 117.487 29.4764 117.679 29.4551V33.0391C117.381 33.0817 117.039 33.1244 116.655 33.1671C116.271 33.2097 115.919 33.2311 115.599 33.2311ZM127.542 33.4231C125.75 33.4231 124.182 33.0177 122.838 32.2071C121.494 31.3964 120.448 30.2977 119.702 28.9111C118.955 27.5244 118.582 25.9884 118.582 24.3031C118.582 22.5537 118.955 21.0071 119.702 19.6631C120.47 18.2977 121.504 17.2204 122.806 16.4311C124.128 15.6417 125.6 15.2471 127.222 15.2471C128.587 15.2471 129.782 15.4711 130.806 15.9191C131.851 16.3671 132.736 16.9857 133.462 17.7751C134.187 18.5644 134.742 19.4711 135.126 20.4951C135.51 21.4977 135.702 22.5857 135.702 23.7591C135.702 24.0577 135.68 24.3671 135.638 24.6871C135.616 25.0071 135.563 25.2844 135.478 25.5191H122.038V22.3191H133.11L131.126 23.8231C131.318 22.8417 131.264 21.9671 130.966 21.1991C130.688 20.4311 130.219 19.8231 129.558 19.3751C128.918 18.9271 128.139 18.7031 127.222 18.7031C126.347 18.7031 125.568 18.9271 124.886 19.3751C124.203 19.8017 123.68 20.4417 123.318 21.2951C122.976 22.1271 122.848 23.1404 122.934 24.3351C122.848 25.4017 122.987 26.3511 123.35 27.1831C123.734 27.9937 124.288 28.6231 125.014 29.0711C125.76 29.5191 126.614 29.7431 127.574 29.7431C128.534 29.7431 129.344 29.5404 130.006 29.1351C130.688 28.7297 131.222 28.1857 131.606 27.5031L134.998 29.1671C134.656 29.9991 134.123 30.7351 133.398 31.3751C132.672 32.0151 131.808 32.5164 130.806 32.8791C129.824 33.2417 128.736 33.4231 127.542 33.4231ZM135.84 33.0391L143.648 21.0391L135.904 9.19906H140.896L147.232 18.8951H144.928L151.232 9.19906H156.224L148.512 21.0391L156.288 33.0391H151.296L144.928 23.2151H147.232L140.832 33.0391H135.84Z" fill="white"/>
<defs>
<clipPath id="clip0_1_1308">
<rect width="40" height="32.6713" fill="white" transform="translate(0 3.70337)"/>
</clipPath>
</defs>
</svg>
