<svg width="80" height="81" viewBox="0 0 80 81" fill="none" xmlns="http://www.w3.org/2000/svg">
<circle cx="40" cy="40.0469" r="40" fill="#83CD20"/>
<g clip-path="url(#clip0_1_1335)">
<path d="M55.3072 44.0042C56.623 40.1266 56.5882 35.9179 55.2084 32.0627C53.8286 28.2074 51.1851 24.9323 47.7077 22.7702C44.2303 20.6081 40.1237 19.686 36.0558 20.1541C31.9879 20.6221 28.198 22.4527 25.3025 25.3481C22.4071 28.2435 20.5764 32.0333 20.1082 36.1012C19.6401 40.1691 20.562 44.2757 22.724 47.7532C24.8861 51.2306 28.1611 53.8743 32.0163 55.2542C35.8715 56.634 40.0802 56.669 43.9579 55.3533C44.556 56.5552 45.4315 57.5975 46.512 58.3943C47.5925 59.1911 48.847 59.7194 50.172 59.9357C51.497 60.1519 52.8544 60.0499 54.1321 59.6381C55.4099 59.2263 56.5714 58.5164 57.5207 57.5671C58.47 56.6179 59.1799 55.4564 59.5918 54.1786C60.0036 52.9009 60.1057 51.5435 59.8894 50.2185C59.6732 48.8935 59.1449 47.639 58.3482 46.5585C57.5514 45.4779 56.5091 44.6024 55.3072 44.0042ZM54.2969 43.5792C52.2171 42.8581 49.9378 42.9783 47.9454 43.9142L48.7469 42.5152C48.7943 42.4324 48.8192 42.3387 48.8191 42.2433V39.6574L50.5185 37.9092C50.6178 37.8072 50.6733 37.6704 50.6732 37.528V35.3033C50.6732 35.1839 50.6341 35.0677 50.5618 34.9727C50.4896 34.8776 50.3882 34.8088 50.2732 34.7767L47.2732 33.9405L46.1638 31.7699C46.1245 31.6931 46.0676 31.6267 45.9978 31.576C45.9279 31.5254 45.8471 31.492 45.7619 31.4786L41.5088 30.8095V30.392L47.25 29.1214L49.3954 31.2652C49.498 31.3677 49.6371 31.4254 49.7822 31.4255H53.776C55.441 35.2738 55.6265 39.6013 54.2969 43.578V43.5792ZM53.2529 30.333H50.0085L47.8125 28.1361C47.7475 28.0712 47.6672 28.0236 47.5791 27.9978C47.4909 27.9721 47.3976 27.9689 47.3079 27.9886L40.8438 29.4189C40.7223 29.4459 40.6136 29.5134 40.5356 29.6105C40.4577 29.7075 40.4152 29.8282 40.415 29.9527V31.277C40.4151 31.4073 40.4617 31.5333 40.5463 31.6323C40.631 31.7313 40.7482 31.7968 40.8769 31.817L45.3166 32.5152L46.4082 34.6514C46.4425 34.7187 46.4905 34.7782 46.549 34.826C46.6076 34.8738 46.6754 34.909 46.7482 34.9292L49.5794 35.7183V37.3058L47.88 39.0539C47.7808 39.156 47.7254 39.2928 47.7254 39.4352V42.0974L45.9197 45.2502C45.189 45.8983 44.5751 46.6672 44.1047 47.5233H42.886V45.7924C42.886 45.7166 42.8702 45.6416 42.8397 45.5722C42.8092 45.5028 42.7646 45.4405 42.7088 45.3892L40.3438 43.2208V40.7064C40.3438 40.5942 40.3092 40.4847 40.2448 40.3927C40.1804 40.3008 40.0893 40.231 39.9838 40.1927L35.0988 38.4164V34.3539L38.2907 30.9074C38.3424 30.8515 38.3819 30.7855 38.4066 30.7136C38.4314 30.6416 38.4408 30.5653 38.4344 30.4894C38.4279 30.4136 38.4058 30.3399 38.3692 30.2732C38.3327 30.2064 38.2826 30.148 38.2222 30.1017L35.3029 27.8624L37.6954 24.4874H42.5775C42.7226 24.4873 42.8616 24.4296 42.9641 24.327L44.7947 22.4967C48.4343 24.054 51.4228 26.8227 53.2529 30.333ZM27.1335 25.1817L28.5066 28.0102L27.401 28.5633C27.3466 28.5904 27.2972 28.6264 27.2547 28.6699L24.6591 31.3183C24.5874 31.3915 24.5376 31.4833 24.5155 31.5834C24.4934 31.6834 24.4999 31.7877 24.5341 31.8842L24.9063 32.9305C24.4796 33.1934 24.0932 33.5166 23.7591 33.8902L21.5538 34.2614C22.3963 30.7166 24.3516 27.5347 27.1335 25.1817ZM21.0979 38.3399H22.8894L27.4097 40.0402L29.7222 43.9552V45.522L29.0447 46.5508C28.9705 46.6633 28.9404 46.7992 28.9603 46.9325C28.9802 47.0658 29.0487 47.1871 29.1525 47.273L29.3244 47.4149L27.6841 48.3955C27.603 48.4439 27.5358 48.5126 27.4892 48.5947C27.4425 48.6769 27.4179 48.7697 27.4179 48.8642V51.4152C25.4648 49.8372 23.8853 47.8464 22.7926 45.5858C21.6999 43.3251 21.1211 40.8506 21.0979 38.3399ZM38.1344 55.2214C34.6971 55.2245 31.3402 54.1819 28.5094 52.232C28.5094 52.2252 28.5113 52.2186 28.5113 52.2117V49.1752L30.5494 47.9564C30.6247 47.9116 30.688 47.8493 30.7341 47.7748C30.7803 47.7004 30.8078 47.6159 30.8145 47.5286C30.8212 47.4413 30.8068 47.3536 30.7725 47.273C30.7382 47.1924 30.6851 47.1212 30.6175 47.0655L30.2275 46.7427L30.7254 45.987C30.7844 45.8978 30.8158 45.7931 30.8157 45.6861V43.8055C30.8158 43.7077 30.7896 43.6118 30.7397 43.5277L28.2535 39.3183C28.1901 39.2109 28.0918 39.1284 27.975 39.0845L23.1813 37.2811C23.1197 37.258 23.0545 37.2461 22.9888 37.2461H21.1204C21.1547 36.6306 21.2222 36.0174 21.3225 35.4092L24.135 34.9361C24.2649 34.9142 24.3825 34.8462 24.4663 34.7445C24.8373 34.2954 25.2989 33.9298 25.821 33.6714C25.9405 33.6117 26.034 33.5104 26.0839 33.3865C26.1338 33.2626 26.1367 33.1248 26.0919 32.9989L25.6794 31.8389L27.9719 29.4999L29.4791 28.7461C29.6078 28.6817 29.706 28.5691 29.7523 28.4329C29.7987 28.2966 29.7894 28.1475 29.7266 28.018L28.0104 24.4839C30.2286 22.8388 32.8144 21.7591 35.5438 21.3385C38.2733 20.9178 41.0641 21.1689 43.6747 22.0699L42.351 23.3936H37.4125C37.3252 23.3936 37.239 23.4146 37.1614 23.4547C37.0838 23.4948 37.0169 23.553 36.9663 23.6242L34.106 27.6595C34.0242 27.775 33.9904 27.9176 34.0115 28.0574C34.0327 28.1972 34.1072 28.3235 34.2194 28.4095L37.0804 30.6039L34.151 33.7652C34.0572 33.8663 34.0051 33.9991 34.005 34.137V38.7995C34.005 38.9118 34.0396 39.0213 34.104 39.1132C34.1684 39.2051 34.2596 39.275 34.365 39.3133L39.25 41.0895V43.4614C39.2501 43.5372 39.2658 43.6122 39.2963 43.6816C39.3268 43.751 39.3714 43.8133 39.4272 43.8645L41.7925 46.0327V48.0702C41.7925 48.2152 41.8502 48.3543 41.9527 48.4569C42.0553 48.5594 42.1944 48.617 42.3394 48.617H43.6041C42.9139 50.4593 42.8888 52.4848 43.5332 54.3436C41.7928 54.9257 39.9696 55.2221 38.1344 55.2214ZM51.5338 58.9527C50.0756 58.9527 48.6501 58.5204 47.4376 57.7103C46.2251 56.9001 45.28 55.7487 44.722 54.4015C44.1639 53.0542 44.0178 51.5718 44.3023 50.1416C44.5868 48.7114 45.289 47.3976 46.3201 46.3665C47.3512 45.3354 48.665 44.6332 50.0952 44.3487C51.5254 44.0642 53.0079 44.2103 54.3551 44.7683C55.7023 45.3264 56.8538 46.2714 57.6639 47.4839C58.474 48.6964 58.9064 50.1219 58.9063 51.5802C58.9041 53.5348 58.1266 55.4087 56.7445 56.7908C55.3623 58.173 53.4884 58.9504 51.5338 58.9527Z" fill="white"/>
<path d="M57.3885 48.4909L56.6932 47.7953C56.354 47.4562 55.894 47.2656 55.4144 47.2656C54.9348 47.2656 54.4748 47.4562 54.1357 47.7953L52.6769 49.2537L50.1894 48.6778C49.8556 48.5994 49.5073 48.6079 49.1778 48.7023C48.8482 48.7967 48.5482 48.974 48.3066 49.2172L47.7319 49.7922C47.6689 49.8551 47.6222 49.9325 47.5958 50.0175C47.5695 50.1026 47.5644 50.1928 47.5809 50.2804C47.5974 50.3679 47.6351 50.45 47.6906 50.5197C47.7461 50.5893 47.8178 50.6444 47.8994 50.68L50.2322 51.6987L49.3135 52.6172L47.1288 52.8197C47.0019 52.8309 46.883 52.8862 46.7925 52.9759L45.6775 54.0906C45.6102 54.158 45.5617 54.2419 45.5367 54.3338C45.5117 54.4257 45.5112 54.5226 45.5352 54.6148C45.5591 54.707 45.6067 54.7914 45.6733 54.8595C45.7399 54.9277 45.8231 54.9773 45.9147 55.0034L48.6435 55.7797C49.1694 55.9292 49.7256 55.9357 50.2548 55.7983C50.7841 55.661 51.267 55.3849 51.6538 54.9984L57.3885 49.2637C57.4393 49.213 57.4796 49.1527 57.5071 49.0864C57.5346 49.0201 57.5488 48.949 57.5488 48.8772C57.5488 48.8054 57.5346 48.7343 57.5071 48.6679C57.4796 48.6016 57.4393 48.5417 57.3885 48.4909ZM50.8803 54.2253C50.6315 54.4741 50.3207 54.652 49.98 54.7405C49.6394 54.829 49.2814 54.8249 48.9428 54.7287L47.1097 54.2075L47.4266 53.8906L49.6113 53.6878C49.7382 53.6766 49.8572 53.6213 49.9475 53.5315L51.5725 51.9065C51.6355 51.8436 51.6821 51.7662 51.7084 51.6812C51.7346 51.5961 51.7397 51.5059 51.7232 51.4184C51.7066 51.331 51.669 51.2489 51.6135 51.1793C51.558 51.1096 51.4863 51.0547 51.4047 51.019L49.0722 50L49.0803 49.9919C49.1909 49.8804 49.3283 49.7991 49.4792 49.7559C49.6302 49.7127 49.7897 49.7089 49.9425 49.745L52.726 50.3894C52.8163 50.4103 52.9106 50.4079 52.9998 50.3823C53.0889 50.3567 53.1701 50.3088 53.2357 50.2431L54.9091 48.5703C55.0451 48.4401 55.2261 48.3674 55.4144 48.3674C55.6027 48.3674 55.7837 48.4401 55.9197 48.5703L56.2285 48.879L50.8803 54.2253Z" fill="white"/>
</g>
<defs>
<clipPath id="clip0_1_1335">
<rect width="40" height="40" fill="white" transform="translate(20 20.0469)"/>
</clipPath>
</defs>
</svg>
