<svg width="15" height="15" viewBox="0 0 15 15" fill="none" xmlns="http://www.w3.org/2000/svg">
<path d="M7.5625 4.05273C9.4082 4.05273 10.9316 5.57617 10.9316 7.42188C10.9316 9.29688 9.4082 10.791 7.5625 10.791C5.6875 10.791 4.19336 9.29688 4.19336 7.42188C4.19336 5.57617 5.6875 4.05273 7.5625 4.05273ZM7.5625 9.61914C8.76367 9.61914 9.73047 8.65234 9.73047 7.42188C9.73047 6.2207 8.76367 5.25391 7.5625 5.25391C6.33203 5.25391 5.36523 6.2207 5.36523 7.42188C5.36523 8.65234 6.36133 9.61914 7.5625 9.61914ZM11.8398 3.93555C11.8398 3.49609 11.4883 3.14453 11.0488 3.14453C10.6094 3.14453 10.2578 3.49609 10.2578 3.93555C10.2578 4.375 10.6094 4.72656 11.0488 4.72656C11.4883 4.72656 11.8398 4.375 11.8398 3.93555ZM14.0664 4.72656C14.125 5.81055 14.125 9.0625 14.0664 10.1465C14.0078 11.2012 13.7734 12.1094 13.0117 12.9004C12.25 13.6621 11.3125 13.8965 10.2578 13.9551C9.17383 14.0137 5.92188 14.0137 4.83789 13.9551C3.7832 13.8965 2.875 13.6621 2.08398 12.9004C1.32227 12.1094 1.08789 11.2012 1.0293 10.1465C0.970703 9.0625 0.970703 5.81055 1.0293 4.72656C1.08789 3.67188 1.32227 2.73438 2.08398 1.97266C2.875 1.21094 3.7832 0.976562 4.83789 0.917969C5.92188 0.859375 9.17383 0.859375 10.2578 0.917969C11.3125 0.976562 12.25 1.21094 13.0117 1.97266C13.7734 2.73438 14.0078 3.67188 14.0664 4.72656ZM12.6602 11.2891C13.0117 10.4395 12.9238 8.38867 12.9238 7.42188C12.9238 6.48438 13.0117 4.43359 12.6602 3.55469C12.4258 2.99805 11.9863 2.5293 11.4297 2.32422C10.5508 1.97266 8.5 2.06055 7.5625 2.06055C6.5957 2.06055 4.54492 1.97266 3.69531 2.32422C3.10938 2.55859 2.66992 2.99805 2.43555 3.55469C2.08398 4.43359 2.17188 6.48438 2.17188 7.42188C2.17188 8.38867 2.08398 10.4395 2.43555 11.2891C2.66992 11.875 3.10938 12.3145 3.69531 12.5488C4.54492 12.9004 6.5957 12.8125 7.5625 12.8125C8.5 12.8125 10.5508 12.9004 11.4297 12.5488C11.9863 12.3145 12.4551 11.875 12.6602 11.2891Z" fill="white"/>
</svg>
