<svg width="14" height="14" viewBox="0 0 14 14" fill="none" xmlns="http://www.w3.org/2000/svg">
<path d="M12.1875 0.859375C12.6855 0.859375 13.125 1.29883 13.125 1.82617V13.0469C13.125 13.5742 12.6855 13.9844 12.1875 13.9844H0.908203C0.410156 13.9844 0 13.5742 0 13.0469V1.82617C0 1.29883 0.410156 0.859375 0.908203 0.859375H12.1875ZM3.95508 12.1094V5.86914H2.02148V12.1094H3.95508ZM2.98828 4.99023C3.60352 4.99023 4.10156 4.49219 4.10156 3.87695C4.10156 3.26172 3.60352 2.73438 2.98828 2.73438C2.34375 2.73438 1.8457 3.26172 1.8457 3.87695C1.8457 4.49219 2.34375 4.99023 2.98828 4.99023ZM11.25 12.1094V8.68164C11.25 7.01172 10.8691 5.69336 8.90625 5.69336C7.96875 5.69336 7.32422 6.2207 7.06055 6.71875H7.03125V5.86914H5.18555V12.1094H7.11914V9.0332C7.11914 8.21289 7.26562 7.42188 8.29102 7.42188C9.28711 7.42188 9.28711 8.35938 9.28711 9.0625V12.1094H11.25Z" fill="white"/>
</svg>
