<svg width="80" height="81" viewBox="0 0 80 81" fill="none" xmlns="http://www.w3.org/2000/svg">
<circle cx="40" cy="40.0391" r="40" fill="#83CD20"/>
<g clip-path="url(#clip0_1_2376)">
<path d="M55.1602 26.0039C56.8477 26.0039 58.2539 24.6328 58.2539 22.9102C58.2539 21.1875 56.8477 19.8516 55.1602 19.8516C53.4727 19.8516 52.0664 21.2227 52.0664 22.9453C52.0664 24.6328 53.4375 26.0039 55.1602 26.0039ZM55.1602 21.082C56.1797 21.082 57.0234 21.9258 57.0234 22.9453C57.0234 23.9648 56.1797 24.8086 55.1602 24.8086C54.1406 24.8086 53.2969 23.9648 53.2969 22.9453C53.2969 21.9258 54.1055 21.082 55.1602 21.082Z" fill="white"/>
<path d="M58.8517 33.1406C58.2892 31.9453 57.6212 30.7852 56.8478 29.7305C58.5353 28.6055 61.0314 26.3906 61.0314 22.9453C61.0314 19.6758 58.3946 17.0742 55.1603 17.0742C51.9259 17.0742 49.254 19.6758 49.254 22.9453V23.332C48.797 23.1211 48.3399 22.9102 47.8829 22.6992C34.6642 17.3906 20.0392 26.9883 19.9689 41.5781C19.9337 52.8281 29.004 61.9688 40.254 62.0039C51.504 62.0391 60.6446 52.9688 60.6798 41.7188C60.6798 41.6484 60.6798 41.6133 60.6798 41.543C60.6798 38.6602 60.047 35.7773 58.8517 33.1406ZM55.1603 18.2695C57.7267 18.2695 59.8009 20.3437 59.836 22.9453C59.836 26.6367 56.1798 28.8164 55.1603 29.3086C54.1759 28.7813 50.4845 26.6367 50.4845 22.9453C50.4845 20.3437 52.5587 18.2695 55.1603 18.2695ZM54.879 30.5742C55.0548 30.6445 55.2306 30.6445 55.3712 30.5742C55.4064 30.5742 55.547 30.5039 55.7579 30.3633C56.3204 31.1367 56.8126 31.9453 57.2696 32.7891H53.6134L51.1524 30.3281C51.0118 30.1875 50.8009 30.1172 50.5899 30.1523L43.3478 31.7695C43.0665 31.8398 42.8556 32.0859 42.8556 32.3672V33.8438C42.8556 34.1602 43.0665 34.4062 43.3829 34.4414L48.3751 35.2148L49.6056 37.6055C49.6759 37.7461 49.8165 37.8867 49.9923 37.9219L53.1564 38.8008V40.5938L51.2579 42.5625C51.1524 42.668 51.0821 42.8438 51.0821 42.9844V45.9727L47.6017 52.0547H45.6681V50.1211C45.6681 49.9453 45.5978 49.7695 45.4571 49.6641L42.7853 47.2383V44.4258C42.7853 44.1797 42.6095 43.9336 42.3985 43.8633L36.9142 41.8594V37.2891L40.5001 33.4219C40.7462 33.1758 40.711 32.7891 40.4649 32.543L40.4298 32.5078L37.1603 29.9766L39.8321 26.1797H45.3165C45.4923 26.1797 45.6329 26.1094 45.7384 26.0039L47.7774 23.9648C48.3399 24.2109 48.9376 24.4922 49.5001 24.8086C50.6251 28.6055 54.7032 30.4688 54.879 30.5742ZM27.9845 26.9883L29.5314 30.1875L28.3009 30.8203C28.2306 30.8555 28.1954 30.8906 28.1251 30.9258L25.2071 33.9141C25.0314 34.0898 24.9962 34.3359 25.0665 34.5469L25.4884 35.7422C25.0314 36.0234 24.5743 36.4102 24.2228 36.7969L21.7267 37.2188C22.6407 33.2109 24.8556 29.625 27.9845 26.9883ZM28.5821 47.0625C27.5978 46.5352 23.9064 44.3906 23.9064 40.6992C23.9415 38.1328 26.0509 36.0586 28.6173 36.0938C31.1485 36.1289 33.2228 38.168 33.2228 40.6992C33.2228 44.3906 29.5665 46.5703 28.5821 47.0625ZM21.2345 40.5586C21.2696 39.8555 21.3399 39.1875 21.4454 38.4844L23.2384 38.168C22.8868 38.9062 22.6759 39.7148 22.6759 40.5234H21.2345V40.5586ZM28.3009 53.6016V56.4844C23.8712 52.8984 21.2696 47.5195 21.1993 41.7891H22.7814C23.4493 46.1133 28.1251 48.2227 28.336 48.3281C28.5118 48.3984 28.6876 48.3984 28.8282 48.3281C29.3204 48.082 29.7774 47.8359 30.2345 47.5195L30.8673 48.1523V49.8398L30.0939 51C29.9181 51.2461 29.9884 51.5977 30.1993 51.8086L30.3751 51.9844L28.547 53.0742C28.4064 53.1797 28.3009 53.3555 28.3009 53.6016ZM40.3243 60.7383C36.4571 60.7383 32.6954 59.5781 29.5314 57.3984V53.9531L31.8165 52.582C32.0978 52.4062 32.2032 52.0195 32.0274 51.7383C31.9923 51.668 31.9571 51.6328 31.8868 51.5977L31.4649 51.2461L32.0274 50.4023C32.0978 50.2969 32.1329 50.1914 32.1329 50.0508V47.9414C32.1329 47.7656 32.0626 47.625 31.9571 47.5195L31.2892 46.8516C32.836 45.6211 34.5235 43.582 34.5235 40.7695C34.5235 37.5352 31.922 34.8984 28.6524 34.8984C27.9493 34.8984 27.2814 35.0039 26.6134 35.25L26.3673 34.5469L28.9337 31.9102L30.6212 31.0664C30.9376 30.9258 31.0431 30.5391 30.9024 30.2578L28.9689 26.2852C34.0314 22.5586 40.6056 21.5391 46.547 23.5781L45.0704 24.9844H39.5157C39.3048 24.9844 39.129 25.0898 39.0235 25.2305L35.8243 29.7656C35.6485 30.0469 35.6837 30.3984 35.9649 30.6094L39.1642 33.0703L35.8595 36.6211C35.754 36.7266 35.6837 36.8672 35.6837 37.043V42.2813C35.6837 42.5273 35.8595 42.7734 36.0704 42.8438L41.5548 44.8477V47.5195C41.5548 47.6953 41.6251 47.8711 41.7657 47.9766L44.4376 50.4023V52.6875C44.4376 53.0391 44.7189 53.2852 45.0353 53.2852H47.9532C48.1642 53.2852 48.3751 53.1797 48.4806 52.9688L52.2423 46.4297C52.3126 46.3242 52.3126 46.2188 52.3126 46.1133V43.1953L54.211 41.2969C54.3165 41.1914 54.3868 41.0156 54.3868 40.875V38.3789C54.3868 38.0977 54.211 37.8516 53.9298 37.7812L50.5548 36.832L49.3243 34.4063C49.2189 34.2305 49.0782 34.125 48.8673 34.0898L44.086 33.3516V32.8594L50.5196 31.418L52.9454 33.8438C53.0509 33.9492 53.2267 34.0195 53.3673 34.0195H57.8673C58.922 36.4102 59.4493 38.9766 59.4493 41.6133C59.4493 52.1602 50.8712 60.7031 40.3243 60.7383Z" fill="white"/>
<path d="M28.582 37.6055C26.8945 37.6055 25.4883 38.9766 25.4883 40.6992C25.4883 42.3867 26.8594 43.793 28.582 43.793C30.3047 43.793 31.6758 42.4219 31.6758 40.6992C31.6406 39.0117 30.2695 37.6055 28.582 37.6055ZM28.582 42.5625C27.5625 42.5625 26.7187 41.7188 26.7187 40.6992C26.7187 39.6797 27.5625 38.8359 28.582 38.8359C29.6016 38.8359 30.4453 39.6797 30.4453 40.6992C30.4453 41.7188 29.6016 42.5625 28.582 42.5625Z" fill="white"/>
</g>
<defs>
<clipPath id="clip0_1_2376">
<rect width="45" height="45" fill="white" transform="translate(18 17.0391)"/>
</clipPath>
</defs>
</svg>
